<svg width="16" height="16" xmlns="http://www.w3.org/2000/svg" shape-rendering="crispEdges"><path d="M6 0h1v1H6zm1 0h1v1H7zm1 0h1v1H8zm1 0h1v1H9zM7 1h1v1H7zm1 0h1v1H8zM2 2h1v1H2zm1 0h1v1H3zm1 0h1v1H4zm3 0h1v1H7zm1 0h1v1H8zm3 0h1v1h-1zm1 0h1v1h-1zm1 0h1v1h-1zM1 3h1v1H1zm1 0h1v1H2zm1 0h1v1H3zm3 0h1v1H6zm1 0h1v1H7zm1 0h1v1H8zm1 0h1v1H9zm3 0h1v1h-1zm1 0h1v1h-1zm1 0h1v1h-1zM1 4h1v1H1zm1 0h1v1H2zm2 0h1v1H4zm1 0h1v1H5zm5 0h1v1h-1zm1 0h1v1h-1zm2 0h1v1h-1zm1 0h1v1h-1zM1 5h1v1H1zm2 0h1v1H3zm5 0h1v1H8zm4 0h1v1h-1zm2 0h1v1h-1zM3 6h1v1H3zm5 0h1v1H8zm4 0h1v1h-1zM2 7h1v1H2zm6 0h1v1H8zm5 0h1v1h-1zM2 8h1v1H2zm6 0h1v1H8zm5 0h1v1h-1zM2 9h1v1H2zm5 0h1v1H7zm6 0h1v1h-1zM2 10h1v1H2zm4 0h1v1H6zm7 0h1v1h-1zM3 11h1v1H3zm9 0h1v1h-1zm-9 1h1v1H3zm9 0h1v1h-1zm-8 1h1v1H4zm1 0h1v1H5zm5 0h1v1h-1zm1 0h1v1h-1zm-7 1h1v1H4zm2 0h1v1H6zm1 0h1v1H7zm1 0h1v1H8zm1 0h1v1H9zm2 0h1v1h-1zm-8 1h1v1H3zm9 0h1v1h-1z"/></svg>