<svg width="16" height="16" xmlns="http://www.w3.org/2000/svg" shape-rendering="crispEdges"><path d="M3 1h1v1H3zM4 1h1v1H4zM5 1h1v1H5zM6 1h1v1H6zM7 1h1v1H7zM8 1h1v1H8zM9 1h1v1H9zM10 1h1v1h-1zM11 1h1v1h-1zM12 1h1v1h-1zM2 2h1v1H2zM13 2h1v1h-1zM1 3h1v1H1zM14 3h1v1h-1zM1 4h1v1H1zM14 4h1v1h-1zM1 5h1v1H1zM14 5h1v1h-1zM1 6h1v1H1zM14 6h1v1h-1zM1 7h1v1H1zM14 7h1v1h-1zM1 8h1v1H1zM14 8h1v1h-1zM1 9h1v1H1zM14 9h1v1h-1zM1 10h1v1H1zM14 10h1v1h-1zM1 11h1v1H1zM14 11h1v1h-1zM1 12h1v1H1zM14 12h1v1h-1zM2 13h1v1H2zM13 13h1v1h-1zM3 14h1v1H3zM4 14h1v1H4zM5 14h1v1H5zM6 14h1v1H6zM7 14h1v1H7zM8 14h1v1H8zM9 14h1v1H9zM10 14h1v1h-1zM11 14h1v1h-1zM12 14h1v1h-1z"/></svg>