<svg width="16" height="16" xmlns="http://www.w3.org/2000/svg" shape-rendering="crispEdges"><path d="M3 1h1v1H3zM4 1h1v1H4zM11 1h1v1h-1zM12 1h1v1h-1zM3 2h1v1H3zM4 2h1v1H4zM10 2h1v1h-1zM11 2h1v1h-1zM12 2h1v1h-1zM13 2h1v1h-1zM3 3h1v1H3zM4 3h1v1H4zM9 3h1v1H9zM11 3h1v1h-1zM12 3h1v1h-1zM14 3h1v1h-1zM3 4h1v1H3zM4 4h1v1H4zM8 4h1v1H8zM11 4h1v1h-1zM12 4h1v1h-1zM15 4h1v1h-1zM3 5h1v1H3zM4 5h1v1H4zM11 5h1v1h-1zM12 5h1v1h-1zM3 6h1v1H3zM4 6h1v1H4zM11 6h1v1h-1zM12 6h1v1h-1zM3 7h1v1H3zM4 7h1v1H4zM11 7h1v1h-1zM12 7h1v1h-1zM3 8h1v1H3zM4 8h1v1H4zM11 8h1v1h-1zM12 8h1v1h-1zM3 9h1v1H3zM4 9h1v1H4zM11 9h1v1h-1zM12 9h1v1h-1zM3 10h1v1H3zM4 10h1v1H4zM11 10h1v1h-1zM12 10h1v1h-1zM0 11h1v1H0zM3 11h1v1H3zM4 11h1v1H4zM7 11h1v1H7zM11 11h1v1h-1zM12 11h1v1h-1zM1 12h1v1H1zM3 12h1v1H3zM4 12h1v1H4zM6 12h1v1H6zM11 12h1v1h-1zM12 12h1v1h-1zM2 13h1v1H2zM3 13h1v1H3zM4 13h1v1H4zM5 13h1v1H5zM11 13h1v1h-1zM12 13h1v1h-1zM3 14h1v1H3zM4 14h1v1H4zM11 14h1v1h-1zM12 14h1v1h-1z"/></svg>