<svg width="16" height="16" xmlns="http://www.w3.org/2000/svg" shape-rendering="crispEdges"><path d="M7 1h1v1H7zM8 1h1v1H8zM7 2h1v1H7zM8 2h1v1H8zM7 3h1v1H7zM8 3h1v1H8zM7 4h1v1H7zM8 4h1v1H8zM7 5h1v1H7zM8 5h1v1H8zM7 6h1v1H7zM8 6h1v1H8zM7 7h1v1H7zM8 7h1v1H8zM7 8h1v1H7zM8 8h1v1H8zM7 9h1v1H7zM8 9h1v1H8zM3 10h1v1H3zM7 10h1v1H7zM8 10h1v1H8zM12 10h1v1h-1zM4 11h1v1H4zM7 11h1v1H7zM8 11h1v1H8zM11 11h1v1h-1zM5 12h1v1H5zM7 12h1v1H7zM8 12h1v1H8zM10 12h1v1h-1zM6 13h1v1H6zM7 13h1v1H7zM8 13h1v1H8zM9 13h1v1H9zM7 14h1v1H7zM8 14h1v1H8z"/></svg>