<svg width="16" height="16" xmlns="http://www.w3.org/2000/svg" shape-rendering="crispEdges"><path d="M1 2h1v1H1zM2 2h1v1H2zM3 2h1v1H3zM4 2h1v1H4zM5 2h1v1H5zM6 2h1v1H6zM7 2h1v1H7zM8 2h1v1H8zM9 2h1v1H9zM10 2h1v1h-1zM11 2h1v1h-1zM12 2h1v1h-1zM13 2h1v1h-1zM14 2h1v1h-1zM7 4h1v1H7zM8 4h1v1H8zM7 5h1v1H7zM8 5h1v1H8zM7 6h1v1H7zM8 6h1v1H8zM7 7h1v1H7zM8 7h1v1H8zM7 8h1v1H7zM8 8h1v1H8zM7 9h1v1H7zM8 9h1v1H8zM4 10h1v1H4zM7 10h1v1H7zM8 10h1v1H8zM11 10h1v1h-1zM5 11h1v1H5zM7 11h1v1H7zM8 11h1v1H8zM10 11h1v1h-1zM6 12h1v1H6zM7 12h1v1H7zM8 12h1v1H8zM9 12h1v1H9zM7 13h1v1H7zM8 13h1v1H8z"/></svg>