<svg width="16" height="16" xmlns="http://www.w3.org/2000/svg" shape-rendering="crispEdges"><path d="M13 1h1v1h-1zM13 2h1v1h-1zM13 3h1v1h-1zM5 4h1v1H5zM13 4h1v1h-1zM4 5h1v1H4zM13 5h1v1h-1zM3 6h1v1H3zM13 6h1v1h-1zM2 7h1v1H2zM3 7h1v1H3zM4 7h1v1H4zM5 7h1v1H5zM6 7h1v1H6zM7 7h1v1H7zM8 7h1v1H8zM9 7h1v1H9zM10 7h1v1h-1zM11 7h1v1h-1zM13 7h1v1h-1zM2 8h1v1H2zM3 8h1v1H3zM4 8h1v1H4zM5 8h1v1H5zM6 8h1v1H6zM7 8h1v1H7zM8 8h1v1H8zM9 8h1v1H9zM10 8h1v1h-1zM11 8h1v1h-1zM13 8h1v1h-1zM3 9h1v1H3zM13 9h1v1h-1zM4 10h1v1H4zM13 10h1v1h-1zM5 11h1v1H5zM13 11h1v1h-1zM13 12h1v1h-1zM13 13h1v1h-1zM13 14h1v1h-1z"/></svg>