<svg width="16" height="16" xmlns="http://www.w3.org/2000/svg" shape-rendering="crispEdges"><path d="M2 1h1v1H2zM2 2h1v1H2zM2 3h1v1H2zM2 4h1v1H2zM10 4h1v1h-1zM2 5h1v1H2zM11 5h1v1h-1zM2 6h1v1H2zM12 6h1v1h-1zM2 7h1v1H2zM4 7h1v1H4zM5 7h1v1H5zM6 7h1v1H6zM7 7h1v1H7zM8 7h1v1H8zM9 7h1v1H9zM10 7h1v1h-1zM11 7h1v1h-1zM12 7h1v1h-1zM13 7h1v1h-1zM2 8h1v1H2zM4 8h1v1H4zM5 8h1v1H5zM6 8h1v1H6zM7 8h1v1H7zM8 8h1v1H8zM9 8h1v1H9zM10 8h1v1h-1zM11 8h1v1h-1zM12 8h1v1h-1zM13 8h1v1h-1zM2 9h1v1H2zM12 9h1v1h-1zM2 10h1v1H2zM11 10h1v1h-1zM2 11h1v1H2zM10 11h1v1h-1zM2 12h1v1H2zM2 13h1v1H2zM2 14h1v1H2z"/></svg>