<svg width="16" height="16" xmlns="http://www.w3.org/2000/svg" shape-rendering="crispEdges"><path d="M7 0h1v1H7zM8 0h1v1H8zM6 1h1v1H6zM7 1h1v1H7zM8 1h1v1H8zM9 1h1v1H9zM5 2h1v1H5zM7 2h1v1H7zM8 2h1v1H8zM10 2h1v1h-1zM7 3h1v1H7zM8 3h1v1H8zM7 4h1v1H7zM8 4h1v1H8zM2 5h1v1H2zM7 5h1v1H7zM8 5h1v1H8zM13 5h1v1h-1zM1 6h1v1H1zM14 6h1v1h-1zM0 7h1v1H0zM1 7h1v1H1zM2 7h1v1H2zM3 7h1v1H3zM4 7h1v1H4zM5 7h1v1H5zM10 7h1v1h-1zM11 7h1v1h-1zM12 7h1v1h-1zM13 7h1v1h-1zM14 7h1v1h-1zM15 7h1v1h-1zM0 8h1v1H0zM1 8h1v1H1zM2 8h1v1H2zM3 8h1v1H3zM4 8h1v1H4zM5 8h1v1H5zM10 8h1v1h-1zM11 8h1v1h-1zM12 8h1v1h-1zM13 8h1v1h-1zM14 8h1v1h-1zM15 8h1v1h-1zM1 9h1v1H1zM14 9h1v1h-1zM2 10h1v1H2zM7 10h1v1H7zM8 10h1v1H8zM13 10h1v1h-1zM7 11h1v1H7zM8 11h1v1H8zM7 12h1v1H7zM8 12h1v1H8zM5 13h1v1H5zM7 13h1v1H7zM8 13h1v1H8zM10 13h1v1h-1zM6 14h1v1H6zM7 14h1v1H7zM8 14h1v1H8zM9 14h1v1H9zM7 15h1v1H7zM8 15h1v1H8z"/></svg>