<svg width="16" height="16" xmlns="http://www.w3.org/2000/svg" shape-rendering="crispEdges"><path d="M7 1h1v1H7zM8 2h1v1H8zM6 3h1v1H6zM7 3h1v1H7zM8 3h1v1H8zM9 3h1v1H9zM4 4h1v1H4zM5 4h1v1H5zM8 4h1v1H8zM3 5h1v1H3zM7 5h1v1H7zM12 5h1v1h-1zM3 6h1v1H3zM12 6h1v1h-1zM2 7h1v1H2zM13 7h1v1h-1zM2 8h1v1H2zM13 8h1v1h-1zM2 9h1v1H2zM13 9h1v1h-1zM2 10h1v1H2zM13 10h1v1h-1zM3 11h1v1H3zM12 11h1v1h-1zM3 12h1v1H3zM12 12h1v1h-1zM4 13h1v1H4zM5 13h1v1H5zM10 13h1v1h-1zM11 13h1v1h-1zM6 14h1v1H6zM7 14h1v1H7zM8 14h1v1H8zM9 14h1v1H9z"/></svg>