<svg width="16" height="16" xmlns="http://www.w3.org/2000/svg" shape-rendering="crispEdges"><path d="M7 0h1v1H7zM8 0h1v1H8zM6 1h1v1H6zM9 1h1v1H9zM5 2h1v1H5zM10 2h1v1h-1zM5 3h1v1H5zM10 3h1v1h-1zM1 4h1v1H1zM2 4h1v1H2zM3 4h1v1H3zM4 4h1v1H4zM5 4h1v1H5zM6 4h1v1H6zM7 4h1v1H7zM8 4h1v1H8zM9 4h1v1H9zM10 4h1v1h-1zM11 4h1v1h-1zM12 4h1v1h-1zM13 4h1v1h-1zM14 4h1v1h-1zM1 5h1v1H1zM14 5h1v1h-1zM1 6h1v1H1zM14 6h1v1h-1zM1 7h1v1H1zM14 7h1v1h-1zM1 8h1v1H1zM14 8h1v1h-1zM1 9h1v1H1zM14 9h1v1h-1zM1 10h1v1H1zM14 10h1v1h-1zM1 11h1v1H1zM14 11h1v1h-1zM1 12h1v1H1zM14 12h1v1h-1zM1 13h1v1H1zM14 13h1v1h-1zM2 14h1v1H2zM13 14h1v1h-1zM3 15h1v1H3zM4 15h1v1H4zM5 15h1v1H5zM6 15h1v1H6zM7 15h1v1H7zM8 15h1v1H8zM9 15h1v1H9zM10 15h1v1h-1zM11 15h1v1h-1zM12 15h1v1h-1z"/></svg>