<svg width="16" height="16" xmlns="http://www.w3.org/2000/svg" shape-rendering="crispEdges"><path d="M11 1h1v1h-1zM12 1h1v1h-1zM13 1h1v1h-1zM14 1h1v1h-1zM11 2h1v1h-1zM14 2h1v1h-1zM11 3h1v1h-1zM14 3h1v1h-1zM11 4h1v1h-1zM14 4h1v1h-1zM6 5h1v1H6zM7 5h1v1H7zM8 5h1v1H8zM9 5h1v1H9zM11 5h1v1h-1zM14 5h1v1h-1zM6 6h1v1H6zM9 6h1v1H9zM11 6h1v1h-1zM14 6h1v1h-1zM6 7h1v1H6zM9 7h1v1H9zM11 7h1v1h-1zM14 7h1v1h-1zM6 8h1v1H6zM9 8h1v1H9zM11 8h1v1h-1zM14 8h1v1h-1zM1 9h1v1H1zM2 9h1v1H2zM3 9h1v1H3zM4 9h1v1H4zM6 9h1v1H6zM9 9h1v1H9zM11 9h1v1h-1zM14 9h1v1h-1zM1 10h1v1H1zM4 10h1v1H4zM6 10h1v1H6zM9 10h1v1H9zM11 10h1v1h-1zM14 10h1v1h-1zM1 11h1v1H1zM4 11h1v1H4zM6 11h1v1H6zM9 11h1v1H9zM11 11h1v1h-1zM14 11h1v1h-1zM1 12h1v1H1zM4 12h1v1H4zM6 12h1v1H6zM9 12h1v1H9zM11 12h1v1h-1zM14 12h1v1h-1zM1 13h1v1H1zM4 13h1v1H4zM6 13h1v1H6zM9 13h1v1H9zM11 13h1v1h-1zM14 13h1v1h-1zM1 14h1v1H1zM2 14h1v1H2zM3 14h1v1H3zM4 14h1v1H4zM6 14h1v1H6zM7 14h1v1H7zM8 14h1v1H8zM9 14h1v1H9zM11 14h1v1h-1zM12 14h1v1h-1zM13 14h1v1h-1zM14 14h1v1h-1z"/></svg>