<svg width="16" height="16" xmlns="http://www.w3.org/2000/svg" shape-rendering="crispEdges"><path d="M8 3h1v1H8zM0 4h1v1H0zM1 4h1v1H1zM2 4h1v1H2zM3 4h1v1H3zM4 4h1v1H4zM7 4h1v1H7zM8 4h1v1H8zM10 4h1v1h-1zM11 4h1v1h-1zM12 4h1v1h-1zM13 4h1v1h-1zM14 4h1v1h-1zM0 5h1v1H0zM6 5h1v1H6zM7 5h1v1H7zM8 5h1v1H8zM14 5h1v1h-1zM0 6h1v1H0zM2 6h1v1H2zM3 6h1v1H3zM5 6h1v1H5zM6 6h1v1H6zM7 6h1v1H7zM12 6h1v1h-1zM14 6h1v1h-1zM15 6h1v1h-1zM0 7h1v1H0zM2 7h1v1H2zM4 7h1v1H4zM5 7h1v1H5zM6 7h1v1H6zM7 7h1v1H7zM8 7h1v1H8zM9 7h1v1H9zM10 7h1v1h-1zM11 7h1v1h-1zM14 7h1v1h-1zM15 7h1v1h-1zM0 8h1v1H0zM3 8h1v1H3zM4 8h1v1H4zM5 8h1v1H5zM6 8h1v1H6zM7 8h1v1H7zM8 8h1v1H8zM9 8h1v1H9zM10 8h1v1h-1zM12 8h1v1h-1zM14 8h1v1h-1zM15 8h1v1h-1zM0 9h1v1H0zM2 9h1v1H2zM6 9h1v1H6zM7 9h1v1H7zM8 9h1v1H8zM9 9h1v1H9zM11 9h1v1h-1zM12 9h1v1h-1zM14 9h1v1h-1zM15 9h1v1h-1zM0 10h1v1H0zM6 10h1v1H6zM7 10h1v1H7zM8 10h1v1H8zM14 10h1v1h-1zM0 11h1v1H0zM1 11h1v1H1zM2 11h1v1H2zM3 11h1v1H3zM4 11h1v1H4zM6 11h1v1H6zM7 11h1v1H7zM10 11h1v1h-1zM11 11h1v1h-1zM12 11h1v1h-1zM13 11h1v1h-1zM14 11h1v1h-1zM6 12h1v1H6z"/></svg>