<svg width="16" height="16" xmlns="http://www.w3.org/2000/svg" shape-rendering="crispEdges"><path d="M2 1h1v1H2zM3 1h1v1H3zM4 1h1v1H4zM5 1h1v1H5zM10 1h1v1h-1zM11 1h1v1h-1zM12 1h1v1h-1zM13 1h1v1h-1zM1 2h1v1H1zM6 2h1v1H6zM9 2h1v1H9zM14 2h1v1h-1zM0 3h1v1H0zM7 3h1v1H7zM8 3h1v1H8zM15 3h1v1h-1zM0 4h1v1H0zM7 4h1v1H7zM8 4h1v1H8zM15 4h1v1h-1zM0 5h1v1H0zM7 5h1v1H7zM8 5h1v1H8zM15 5h1v1h-1zM0 6h1v1H0zM7 6h1v1H7zM8 6h1v1H8zM15 6h1v1h-1zM0 7h1v1H0zM7 7h1v1H7zM8 7h1v1H8zM15 7h1v1h-1zM0 8h1v1H0zM7 8h1v1H7zM8 8h1v1H8zM15 8h1v1h-1zM0 9h1v1H0zM7 9h1v1H7zM8 9h1v1H8zM15 9h1v1h-1zM0 10h1v1H0zM7 10h1v1H7zM8 10h1v1H8zM15 10h1v1h-1zM0 11h1v1H0zM7 11h1v1H7zM8 11h1v1H8zM15 11h1v1h-1zM0 12h1v1H0zM2 12h1v1H2zM3 12h1v1H3zM4 12h1v1H4zM5 12h1v1H5zM7 12h1v1H7zM8 12h1v1H8zM10 12h1v1h-1zM11 12h1v1h-1zM12 12h1v1h-1zM13 12h1v1h-1zM15 12h1v1h-1zM0 13h1v1H0zM1 13h1v1H1zM6 13h1v1H6zM7 13h1v1H7zM8 13h1v1H8zM9 13h1v1H9zM14 13h1v1h-1zM15 13h1v1h-1zM0 14h1v1H0zM7 14h1v1H7zM8 14h1v1H8zM15 14h1v1h-1z"/></svg>