<svg width="16" height="16" xmlns="http://www.w3.org/2000/svg" shape-rendering="crispEdges"><path d="M3 0h1v1H3zM4 0h1v1H4zM5 0h1v1H5zM6 0h1v1H6zM7 0h1v1H7zM8 0h1v1H8zM9 0h1v1H9zM10 0h1v1h-1zM11 0h1v1h-1zM12 0h1v1h-1zM2 1h1v1H2zM13 1h1v1h-1zM2 2h1v1H2zM13 2h1v1h-1zM2 3h1v1H2zM13 3h1v1h-1zM2 4h1v1H2zM13 4h1v1h-1zM2 5h1v1H2zM13 5h1v1h-1zM2 6h1v1H2zM13 6h1v1h-1zM2 7h1v1H2zM13 7h1v1h-1zM2 8h1v1H2zM13 8h1v1h-1zM2 9h1v1H2zM13 9h1v1h-1zM2 10h1v1H2zM7 10h1v1H7zM8 10h1v1H8zM13 10h1v1h-1zM2 11h1v1H2zM6 11h1v1H6zM9 11h1v1H9zM13 11h1v1h-1zM2 12h1v1H2zM5 12h1v1H5zM10 12h1v1h-1zM13 12h1v1h-1zM2 13h1v1H2zM4 13h1v1H4zM11 13h1v1h-1zM13 13h1v1h-1zM2 14h1v1H2zM3 14h1v1H3zM12 14h1v1h-1zM13 14h1v1h-1zM2 15h1v1H2zM13 15h1v1h-1z"/></svg>