<svg width="16" height="16" xmlns="http://www.w3.org/2000/svg" shape-rendering="crispEdges"><path d="M7 0h1v1H7zM8 0h1v1H8zM5 1h1v1H5zM6 1h1v1H6zM9 1h1v1H9zM10 1h1v1h-1zM3 2h1v1H3zM4 2h1v1H4zM11 2h1v1h-1zM12 2h1v1h-1zM1 3h1v1H1zM2 3h1v1H2zM13 3h1v1h-1zM14 3h1v1h-1zM0 4h1v1H0zM15 4h1v1h-1zM0 5h1v1H0zM1 5h1v1H1zM2 5h1v1H2zM13 5h1v1h-1zM14 5h1v1h-1zM15 5h1v1h-1zM0 6h1v1H0zM3 6h1v1H3zM4 6h1v1H4zM11 6h1v1h-1zM12 6h1v1h-1zM15 6h1v1h-1zM0 7h1v1H0zM5 7h1v1H5zM6 7h1v1H6zM9 7h1v1H9zM10 7h1v1h-1zM15 7h1v1h-1zM0 8h1v1H0zM7 8h1v1H7zM8 8h1v1H8zM15 8h1v1h-1zM0 9h1v1H0zM7 9h1v1H7zM8 9h1v1H8zM15 9h1v1h-1zM0 10h1v1H0zM7 10h1v1H7zM8 10h1v1H8zM15 10h1v1h-1zM0 11h1v1H0zM7 11h1v1H7zM8 11h1v1H8zM15 11h1v1h-1zM1 12h1v1H1zM2 12h1v1H2zM7 12h1v1H7zM8 12h1v1H8zM13 12h1v1h-1zM14 12h1v1h-1zM3 13h1v1H3zM4 13h1v1H4zM7 13h1v1H7zM8 13h1v1H8zM11 13h1v1h-1zM12 13h1v1h-1zM5 14h1v1H5zM6 14h1v1H6zM7 14h1v1H7zM8 14h1v1H8zM9 14h1v1H9zM10 14h1v1h-1zM7 15h1v1H7zM8 15h1v1H8z"/></svg>