<svg width="16" height="16" xmlns="http://www.w3.org/2000/svg" shape-rendering="crispEdges"><path d="M7 0h1v1H7zM7 1h1v1H7zM13 1h1v1h-1zM1 2h1v1H1zM7 2h1v1H7zM12 2h1v1h-1zM2 3h1v1H2zM11 3h1v1h-1zM3 4h1v1H3zM6 4h1v1H6zM7 4h1v1H7zM8 4h1v1H8zM9 4h1v1H9zM5 5h1v1H5zM10 5h1v1h-1zM4 6h1v1H4zM11 6h1v1h-1zM4 7h1v1H4zM11 7h1v1h-1zM13 7h1v1h-1zM14 7h1v1h-1zM15 7h1v1h-1zM0 8h1v1H0zM1 8h1v1H1zM2 8h1v1H2zM4 8h1v1H4zM11 8h1v1h-1zM4 9h1v1H4zM11 9h1v1h-1zM5 10h1v1H5zM10 10h1v1h-1zM6 11h1v1H6zM7 11h1v1H7zM8 11h1v1H8zM9 11h1v1H9zM12 11h1v1h-1zM4 12h1v1H4zM13 12h1v1h-1zM3 13h1v1H3zM8 13h1v1H8zM14 13h1v1h-1zM2 14h1v1H2zM8 14h1v1H8zM8 15h1v1H8z"/></svg>