<svg width="16" height="16" xmlns="http://www.w3.org/2000/svg" shape-rendering="crispEdges"><path d="M2 0h1v1H2zM3 0h1v1H3zM4 0h1v1H4zM5 0h1v1H5zM6 0h1v1H6zM7 0h1v1H7zM8 0h1v1H8zM9 0h1v1H9zM10 0h1v1h-1zM11 0h1v1h-1zM12 0h1v1h-1zM13 0h1v1h-1zM2 1h1v1H2zM13 1h1v1h-1zM2 2h1v1H2zM4 2h1v1H4zM5 2h1v1H5zM6 2h1v1H6zM7 2h1v1H7zM8 2h1v1H8zM9 2h1v1H9zM10 2h1v1h-1zM11 2h1v1h-1zM13 2h1v1h-1zM2 3h1v1H2zM4 3h1v1H4zM5 3h1v1H5zM6 3h1v1H6zM7 3h1v1H7zM8 3h1v1H8zM9 3h1v1H9zM10 3h1v1h-1zM11 3h1v1h-1zM13 3h1v1h-1zM2 4h1v1H2zM4 4h1v1H4zM5 4h1v1H5zM6 4h1v1H6zM7 4h1v1H7zM8 4h1v1H8zM9 4h1v1H9zM10 4h1v1h-1zM11 4h1v1h-1zM13 4h1v1h-1zM2 5h1v1H2zM13 5h1v1h-1zM2 6h1v1H2zM4 6h1v1H4zM5 6h1v1H5zM7 6h1v1H7zM8 6h1v1H8zM10 6h1v1h-1zM11 6h1v1h-1zM13 6h1v1h-1zM2 7h1v1H2zM4 7h1v1H4zM5 7h1v1H5zM7 7h1v1H7zM8 7h1v1H8zM10 7h1v1h-1zM11 7h1v1h-1zM13 7h1v1h-1zM2 8h1v1H2zM13 8h1v1h-1zM2 9h1v1H2zM4 9h1v1H4zM5 9h1v1H5zM7 9h1v1H7zM8 9h1v1H8zM10 9h1v1h-1zM11 9h1v1h-1zM13 9h1v1h-1zM2 10h1v1H2zM4 10h1v1H4zM5 10h1v1H5zM7 10h1v1H7zM8 10h1v1H8zM10 10h1v1h-1zM11 10h1v1h-1zM13 10h1v1h-1zM2 11h1v1H2zM10 11h1v1h-1zM11 11h1v1h-1zM13 11h1v1h-1zM2 12h1v1H2zM4 12h1v1H4zM5 12h1v1H5zM7 12h1v1H7zM8 12h1v1H8zM10 12h1v1h-1zM11 12h1v1h-1zM13 12h1v1h-1zM2 13h1v1H2zM4 13h1v1H4zM5 13h1v1H5zM7 13h1v1H7zM8 13h1v1H8zM10 13h1v1h-1zM11 13h1v1h-1zM13 13h1v1h-1zM2 14h1v1H2zM13 14h1v1h-1zM2 15h1v1H2zM3 15h1v1H3zM4 15h1v1H4zM5 15h1v1H5zM6 15h1v1H6zM7 15h1v1H7zM8 15h1v1H8zM9 15h1v1H9zM10 15h1v1h-1zM11 15h1v1h-1zM12 15h1v1h-1zM13 15h1v1h-1z"/></svg>