<svg width="16" height="16" xmlns="http://www.w3.org/2000/svg" shape-rendering="crispEdges"><path d="M4 0h1v1H4zM11 0h1v1h-1zM1 1h1v1H1zM2 1h1v1H2zM3 1h1v1H3zM4 1h1v1H4zM5 1h1v1H5zM6 1h1v1H6zM7 1h1v1H7zM8 1h1v1H8zM9 1h1v1H9zM10 1h1v1h-1zM11 1h1v1h-1zM12 1h1v1h-1zM13 1h1v1h-1zM14 1h1v1h-1zM0 2h1v1H0zM1 2h1v1H1zM2 2h1v1H2zM3 2h1v1H3zM4 2h1v1H4zM5 2h1v1H5zM6 2h1v1H6zM7 2h1v1H7zM8 2h1v1H8zM9 2h1v1H9zM10 2h1v1h-1zM11 2h1v1h-1zM12 2h1v1h-1zM13 2h1v1h-1zM14 2h1v1h-1zM15 2h1v1h-1zM0 3h1v1H0zM1 3h1v1H1zM2 3h1v1H2zM3 3h1v1H3zM4 3h1v1H4zM5 3h1v1H5zM6 3h1v1H6zM7 3h1v1H7zM8 3h1v1H8zM9 3h1v1H9zM10 3h1v1h-1zM11 3h1v1h-1zM12 3h1v1h-1zM13 3h1v1h-1zM14 3h1v1h-1zM15 3h1v1h-1zM0 4h1v1H0zM15 4h1v1h-1zM0 5h1v1H0zM15 5h1v1h-1zM0 6h1v1H0zM15 6h1v1h-1zM0 7h1v1H0zM15 7h1v1h-1zM0 8h1v1H0zM15 8h1v1h-1zM0 9h1v1H0zM15 9h1v1h-1zM0 10h1v1H0zM15 10h1v1h-1zM0 11h1v1H0zM15 11h1v1h-1zM0 12h1v1H0zM15 12h1v1h-1zM0 13h1v1H0zM15 13h1v1h-1zM0 14h1v1H0zM15 14h1v1h-1zM1 15h1v1H1zM2 15h1v1H2zM3 15h1v1H3zM4 15h1v1H4zM5 15h1v1H5zM6 15h1v1H6zM7 15h1v1H7zM8 15h1v1H8zM9 15h1v1H9zM10 15h1v1h-1zM11 15h1v1h-1zM12 15h1v1h-1zM13 15h1v1h-1zM14 15h1v1h-1z"/></svg>