<svg width="16" height="16" xmlns="http://www.w3.org/2000/svg" shape-rendering="crispEdges"><path d="M1 3h1v1H1zM2 3h1v1H2zM3 3h1v1H3zM4 3h1v1H4zM5 3h1v1H5zM6 3h1v1H6zM7 3h1v1H7zM8 3h1v1H8zM9 3h1v1H9zM10 3h1v1h-1zM14 3h1v1h-1zM15 3h1v1h-1zM0 4h1v1H0zM11 4h1v1h-1zM13 4h1v1h-1zM15 4h1v1h-1zM0 5h1v1H0zM11 5h1v1h-1zM12 5h1v1h-1zM15 5h1v1h-1zM0 6h1v1H0zM11 6h1v1h-1zM15 6h1v1h-1zM0 7h1v1H0zM11 7h1v1h-1zM15 7h1v1h-1zM0 8h1v1H0zM11 8h1v1h-1zM15 8h1v1h-1zM0 9h1v1H0zM11 9h1v1h-1zM15 9h1v1h-1zM0 10h1v1H0zM11 10h1v1h-1zM12 10h1v1h-1zM15 10h1v1h-1zM0 11h1v1H0zM11 11h1v1h-1zM13 11h1v1h-1zM15 11h1v1h-1zM1 12h1v1H1zM2 12h1v1H2zM3 12h1v1H3zM4 12h1v1H4zM5 12h1v1H5zM6 12h1v1H6zM7 12h1v1H7zM8 12h1v1H8zM9 12h1v1H9zM10 12h1v1h-1zM14 12h1v1h-1zM15 12h1v1h-1z"/></svg>