<svg width="16" height="16" xmlns="http://www.w3.org/2000/svg" shape-rendering="crispEdges"><path d="M0 0h1v1H0zM1 0h1v1H1zM2 0h1v1H2zM2 1h1v1H2zM2 2h1v1H2zM3 3h1v1H3zM4 3h1v1H4zM5 3h1v1H5zM6 3h1v1H6zM7 3h1v1H7zM8 3h1v1H8zM9 3h1v1H9zM10 3h1v1h-1zM11 3h1v1h-1zM12 3h1v1h-1zM13 3h1v1h-1zM14 3h1v1h-1zM15 3h1v1h-1zM3 4h1v1H3zM15 4h1v1h-1zM3 5h1v1H3zM15 5h1v1h-1zM3 6h1v1H3zM15 6h1v1h-1zM4 7h1v1H4zM14 7h1v1h-1zM4 8h1v1H4zM14 8h1v1h-1zM4 9h1v1H4zM14 9h1v1h-1zM4 10h1v1H4zM14 10h1v1h-1zM5 11h1v1H5zM6 11h1v1H6zM7 11h1v1H7zM8 11h1v1H8zM9 11h1v1H9zM10 11h1v1h-1zM11 11h1v1h-1zM12 11h1v1h-1zM13 11h1v1h-1zM5 12h1v1H5zM6 12h1v1H6zM11 12h1v1h-1zM12 12h1v1h-1zM4 13h1v1H4zM7 13h1v1H7zM10 13h1v1h-1zM13 13h1v1h-1zM4 14h1v1H4zM7 14h1v1H7zM10 14h1v1h-1zM13 14h1v1h-1zM5 15h1v1H5zM6 15h1v1H6zM11 15h1v1h-1zM12 15h1v1h-1z"/></svg>