<svg width="16" height="16" xmlns="http://www.w3.org/2000/svg" shape-rendering="crispEdges"><path d="M5 1h1v1H5zM6 1h1v1H6zM7 1h1v1H7zM8 1h1v1H8zM9 1h1v1H9zM10 1h1v1h-1zM3 2h1v1H3zM4 2h1v1H4zM11 2h1v1h-1zM12 2h1v1h-1zM2 3h1v1H2zM13 3h1v1h-1zM1 4h1v1H1zM14 4h1v1h-1zM0 5h1v1H0zM15 5h1v1h-1zM0 6h1v1H0zM15 6h1v1h-1zM0 7h1v1H0zM15 7h1v1h-1zM0 8h1v1H0zM15 8h1v1h-1zM0 9h1v1H0zM15 9h1v1h-1zM1 10h1v1H1zM14 10h1v1h-1zM2 11h1v1H2zM13 11h1v1h-1zM1 12h1v1H1zM11 12h1v1h-1zM12 12h1v1h-1zM1 13h1v1H1zM4 13h1v1H4zM5 13h1v1H5zM6 13h1v1H6zM7 13h1v1H7zM8 13h1v1H8zM9 13h1v1H9zM10 13h1v1h-1zM1 14h1v1H1zM2 14h1v1H2zM3 14h1v1H3z"/></svg>