<svg width="16" height="16" xmlns="http://www.w3.org/2000/svg" shape-rendering="crispEdges"><path d="M4 0h1v1H4zM5 0h1v1H5zM6 0h1v1H6zM7 0h1v1H7zM8 0h1v1H8zM9 0h1v1H9zM10 0h1v1h-1zM11 0h1v1h-1zM2 1h1v1H2zM4 1h1v1H4zM11 1h1v1h-1zM13 1h1v1h-1zM1 2h1v1H1zM4 2h1v1H4zM11 2h1v1h-1zM14 2h1v1h-1zM1 3h1v1H1zM4 3h1v1H4zM5 3h1v1H5zM6 3h1v1H6zM7 3h1v1H7zM8 3h1v1H8zM9 3h1v1H9zM10 3h1v1h-1zM11 3h1v1h-1zM14 3h1v1h-1zM1 4h1v1H1zM14 4h1v1h-1zM1 5h1v1H1zM14 5h1v1h-1zM1 6h1v1H1zM14 6h1v1h-1zM1 7h1v1H1zM14 7h1v1h-1zM1 8h1v1H1zM14 8h1v1h-1zM1 9h1v1H1zM14 9h1v1h-1zM1 10h1v1H1zM14 10h1v1h-1zM1 11h1v1H1zM14 11h1v1h-1zM1 12h1v1H1zM14 12h1v1h-1zM1 13h1v1H1zM14 13h1v1h-1zM1 14h1v1H1zM14 14h1v1h-1zM2 15h1v1H2zM3 15h1v1H3zM4 15h1v1H4zM5 15h1v1H5zM6 15h1v1H6zM7 15h1v1H7zM8 15h1v1H8zM9 15h1v1H9zM10 15h1v1h-1zM11 15h1v1h-1zM12 15h1v1h-1zM13 15h1v1h-1z"/></svg>