<svg width="16" height="16" xmlns="http://www.w3.org/2000/svg" shape-rendering="crispEdges"><path d="M6 0h1v1H6zM7 0h1v1H7zM8 0h1v1H8zM9 0h1v1H9zM5 1h1v1H5zM10 1h1v1h-1zM4 2h1v1H4zM11 2h1v1h-1zM2 3h1v1H2zM3 3h1v1H3zM12 3h1v1h-1zM13 3h1v1h-1zM1 4h1v1H1zM7 4h1v1H7zM8 4h1v1H8zM14 4h1v1h-1zM0 5h1v1H0zM7 5h1v1H7zM8 5h1v1H8zM15 5h1v1h-1zM0 6h1v1H0zM7 6h1v1H7zM8 6h1v1H8zM15 6h1v1h-1zM0 7h1v1H0zM7 7h1v1H7zM8 7h1v1H8zM15 7h1v1h-1zM0 8h1v1H0zM7 8h1v1H7zM8 8h1v1H8zM15 8h1v1h-1zM1 9h1v1H1zM7 9h1v1H7zM8 9h1v1H8zM14 9h1v1h-1zM2 10h1v1H2zM7 10h1v1H7zM8 10h1v1H8zM13 10h1v1h-1zM3 11h1v1H3zM4 11h1v1H4zM5 11h1v1H5zM7 11h1v1H7zM8 11h1v1H8zM10 11h1v1h-1zM11 11h1v1h-1zM12 11h1v1h-1zM7 12h1v1H7zM8 12h1v1H8zM5 13h1v1H5zM7 13h1v1H7zM8 13h1v1H8zM10 13h1v1h-1zM6 14h1v1H6zM7 14h1v1H7zM8 14h1v1H8zM9 14h1v1H9zM7 15h1v1H7zM8 15h1v1H8z"/></svg>