<svg width="16" height="16" xmlns="http://www.w3.org/2000/svg" shape-rendering="crispEdges"><path d="M6 2h1v1H6zM7 2h1v1H7zM8 2h1v1H8zM9 2h1v1H9zM5 3h1v1H5zM10 3h1v1h-1zM4 4h1v1H4zM11 4h1v1h-1zM2 5h1v1H2zM3 5h1v1H3zM7 5h1v1H7zM8 5h1v1H8zM12 5h1v1h-1zM13 5h1v1h-1zM1 6h1v1H1zM7 6h1v1H7zM8 6h1v1H8zM14 6h1v1h-1zM0 7h1v1H0zM7 7h1v1H7zM8 7h1v1H8zM15 7h1v1h-1zM0 8h1v1H0zM7 8h1v1H7zM8 8h1v1H8zM15 8h1v1h-1zM0 9h1v1H0zM5 9h1v1H5zM7 9h1v1H7zM8 9h1v1H8zM10 9h1v1h-1zM15 9h1v1h-1zM0 10h1v1H0zM6 10h1v1H6zM7 10h1v1H7zM8 10h1v1H8zM9 10h1v1H9zM15 10h1v1h-1zM1 11h1v1H1zM7 11h1v1H7zM8 11h1v1H8zM14 11h1v1h-1zM2 12h1v1H2zM13 12h1v1h-1zM3 13h1v1H3zM4 13h1v1H4zM5 13h1v1H5zM6 13h1v1H6zM7 13h1v1H7zM8 13h1v1H8zM9 13h1v1H9zM10 13h1v1h-1zM11 13h1v1h-1zM12 13h1v1h-1z"/></svg>