<svg width="16" height="16" xmlns="http://www.w3.org/2000/svg" shape-rendering="crispEdges"><path d="M2 1h1v1H2zM3 1h1v1H3zM4 1h1v1H4zM11 1h1v1h-1zM12 1h1v1h-1zM13 1h1v1h-1zM1 2h1v1H1zM5 2h1v1H5zM10 2h1v1h-1zM14 2h1v1h-1zM1 3h1v1H1zM5 3h1v1H5zM10 3h1v1h-1zM14 3h1v1h-1zM1 4h1v1H1zM5 4h1v1H5zM10 4h1v1h-1zM14 4h1v1h-1zM2 5h1v1H2zM3 5h1v1H3zM4 5h1v1H4zM5 5h1v1H5zM6 5h1v1H6zM7 5h1v1H7zM8 5h1v1H8zM9 5h1v1H9zM10 5h1v1h-1zM11 5h1v1h-1zM12 5h1v1h-1zM13 5h1v1h-1zM5 6h1v1H5zM10 6h1v1h-1zM5 7h1v1H5zM10 7h1v1h-1zM5 8h1v1H5zM10 8h1v1h-1zM5 9h1v1H5zM10 9h1v1h-1zM2 10h1v1H2zM3 10h1v1H3zM4 10h1v1H4zM5 10h1v1H5zM6 10h1v1H6zM7 10h1v1H7zM8 10h1v1H8zM9 10h1v1H9zM10 10h1v1h-1zM11 10h1v1h-1zM12 10h1v1h-1zM13 10h1v1h-1zM1 11h1v1H1zM5 11h1v1H5zM10 11h1v1h-1zM14 11h1v1h-1zM1 12h1v1H1zM5 12h1v1H5zM10 12h1v1h-1zM14 12h1v1h-1zM1 13h1v1H1zM5 13h1v1H5zM10 13h1v1h-1zM14 13h1v1h-1zM2 14h1v1H2zM3 14h1v1H3zM4 14h1v1H4zM11 14h1v1h-1zM12 14h1v1h-1zM13 14h1v1h-1z"/></svg>