<svg width="16" height="16" xmlns="http://www.w3.org/2000/svg" shape-rendering="crispEdges"><path d="M6 0h1v1H6zM7 0h1v1H7zM8 0h1v1H8zM9 0h1v1H9zM7 1h1v1H7zM8 1h1v1H8zM6 2h1v1H6zM7 2h1v1H7zM8 2h1v1H8zM9 2h1v1H9zM4 3h1v1H4zM5 3h1v1H5zM6 3h1v1H6zM7 3h1v1H7zM8 3h1v1H8zM9 3h1v1H9zM10 3h1v1h-1zM11 3h1v1h-1zM3 4h1v1H3zM4 4h1v1H4zM5 4h1v1H5zM6 4h1v1H6zM7 4h1v1H7zM8 4h1v1H8zM9 4h1v1H9zM10 4h1v1h-1zM11 4h1v1h-1zM12 4h1v1h-1zM2 5h1v1H2zM3 5h1v1H3zM4 5h1v1H4zM5 5h1v1H5zM6 5h1v1H6zM7 5h1v1H7zM8 5h1v1H8zM9 5h1v1H9zM10 5h1v1h-1zM11 5h1v1h-1zM12 5h1v1h-1zM13 5h1v1h-1zM2 6h1v1H2zM3 6h1v1H3zM4 6h1v1H4zM5 6h1v1H5zM6 6h1v1H6zM7 6h1v1H7zM8 6h1v1H8zM11 6h1v1h-1zM12 6h1v1h-1zM13 6h1v1h-1zM1 7h1v1H1zM2 7h1v1H2zM3 7h1v1H3zM4 7h1v1H4zM5 7h1v1H5zM6 7h1v1H6zM11 7h1v1h-1zM12 7h1v1h-1zM13 7h1v1h-1zM14 7h1v1h-1zM1 8h1v1H1zM2 8h1v1H2zM3 8h1v1H3zM4 8h1v1H4zM5 8h1v1H5zM10 8h1v1h-1zM11 8h1v1h-1zM12 8h1v1h-1zM13 8h1v1h-1zM14 8h1v1h-1zM1 9h1v1H1zM2 9h1v1H2zM3 9h1v1H3zM4 9h1v1H4zM5 9h1v1H5zM10 9h1v1h-1zM11 9h1v1h-1zM12 9h1v1h-1zM13 9h1v1h-1zM14 9h1v1h-1zM1 10h1v1H1zM2 10h1v1H2zM3 10h1v1H3zM4 10h1v1H4zM9 10h1v1H9zM10 10h1v1h-1zM11 10h1v1h-1zM12 10h1v1h-1zM13 10h1v1h-1zM14 10h1v1h-1zM2 11h1v1H2zM3 11h1v1H3zM4 11h1v1H4zM7 11h1v1H7zM8 11h1v1H8zM9 11h1v1H9zM10 11h1v1h-1zM11 11h1v1h-1zM12 11h1v1h-1zM13 11h1v1h-1zM2 12h1v1H2zM3 12h1v1H3zM4 12h1v1H4zM5 12h1v1H5zM6 12h1v1H6zM7 12h1v1H7zM8 12h1v1H8zM9 12h1v1H9zM10 12h1v1h-1zM11 12h1v1h-1zM12 12h1v1h-1zM13 12h1v1h-1zM3 13h1v1H3zM4 13h1v1H4zM5 13h1v1H5zM6 13h1v1H6zM7 13h1v1H7zM8 13h1v1H8zM9 13h1v1H9zM10 13h1v1h-1zM11 13h1v1h-1zM12 13h1v1h-1zM4 14h1v1H4zM5 14h1v1H5zM6 14h1v1H6zM7 14h1v1H7zM8 14h1v1H8zM9 14h1v1H9zM10 14h1v1h-1zM11 14h1v1h-1zM6 15h1v1H6zM7 15h1v1H7zM8 15h1v1H8zM9 15h1v1H9z"/></svg>