<svg width="16" height="16" xmlns="http://www.w3.org/2000/svg" shape-rendering="crispEdges"><path d="M6 0h1v1H6zM7 0h1v1H7zM8 0h1v1H8zM9 0h1v1H9zM7 1h1v1H7zM8 1h1v1H8zM6 2h1v1H6zM7 2h1v1H7zM8 2h1v1H8zM9 2h1v1H9zM4 3h1v1H4zM5 3h1v1H5zM10 3h1v1h-1zM11 3h1v1h-1zM3 4h1v1H3zM12 4h1v1h-1zM2 5h1v1H2zM13 5h1v1h-1zM2 6h1v1H2zM9 6h1v1H9zM10 6h1v1h-1zM13 6h1v1h-1zM1 7h1v1H1zM7 7h1v1H7zM8 7h1v1H8zM9 7h1v1H9zM10 7h1v1h-1zM14 7h1v1h-1zM1 8h1v1H1zM6 8h1v1H6zM7 8h1v1H7zM8 8h1v1H8zM9 8h1v1H9zM14 8h1v1h-1zM1 9h1v1H1zM6 9h1v1H6zM7 9h1v1H7zM8 9h1v1H8zM9 9h1v1H9zM14 9h1v1h-1zM1 10h1v1H1zM5 10h1v1H5zM6 10h1v1H6zM7 10h1v1H7zM8 10h1v1H8zM14 10h1v1h-1zM2 11h1v1H2zM5 11h1v1H5zM6 11h1v1H6zM13 11h1v1h-1zM2 12h1v1H2zM13 12h1v1h-1zM3 13h1v1H3zM12 13h1v1h-1zM4 14h1v1H4zM5 14h1v1H5zM10 14h1v1h-1zM11 14h1v1h-1zM6 15h1v1H6zM7 15h1v1H7zM8 15h1v1H8zM9 15h1v1H9z"/></svg>