<svg width="16" height="16" xmlns="http://www.w3.org/2000/svg" shape-rendering="crispEdges"><path d="M5 2h1v1H5zM10 2h1v1h-1zM4 3h1v1H4zM5 3h1v1H5zM6 3h1v1H6zM7 3h1v1H7zM8 3h1v1H8zM9 3h1v1H9zM10 3h1v1h-1zM11 3h1v1h-1zM3 4h1v1H3zM12 4h1v1h-1zM2 5h1v1H2zM13 5h1v1h-1zM2 6h1v1H2zM5 6h1v1H5zM10 6h1v1h-1zM13 6h1v1h-1zM1 7h1v1H1zM4 7h1v1H4zM5 7h1v1H5zM6 7h1v1H6zM9 7h1v1H9zM11 7h1v1h-1zM14 7h1v1h-1zM1 8h1v1H1zM5 8h1v1H5zM10 8h1v1h-1zM14 8h1v1h-1zM1 9h1v1H1zM14 9h1v1h-1zM1 10h1v1H1zM5 10h1v1H5zM6 10h1v1H6zM7 10h1v1H7zM8 10h1v1H8zM9 10h1v1H9zM10 10h1v1h-1zM14 10h1v1h-1zM1 11h1v1H1zM4 11h1v1H4zM11 11h1v1h-1zM14 11h1v1h-1zM1 12h1v1H1zM3 12h1v1H3zM12 12h1v1h-1zM14 12h1v1h-1zM1 13h1v1H1zM2 13h1v1H2zM13 13h1v1h-1zM14 13h1v1h-1z"/></svg>