<svg width="16" height="16" xmlns="http://www.w3.org/2000/svg" shape-rendering="crispEdges"><path d="M5 0h1v1H5zM7 0h1v1H7zM9 0h1v1H9zM11 0h1v1h-1zM5 1h1v1H5zM7 1h1v1H7zM9 1h1v1H9zM11 1h1v1h-1zM3 2h1v1H3zM4 2h1v1H4zM5 2h1v1H5zM6 2h1v1H6zM7 2h1v1H7zM8 2h1v1H8zM9 2h1v1H9zM10 2h1v1h-1zM11 2h1v1h-1zM12 2h1v1h-1zM2 3h1v1H2zM13 3h1v1h-1zM2 4h1v1H2zM13 4h1v1h-1zM14 4h1v1h-1zM15 4h1v1h-1zM0 5h1v1H0zM1 5h1v1H1zM2 5h1v1H2zM5 5h1v1H5zM6 5h1v1H6zM7 5h1v1H7zM8 5h1v1H8zM9 5h1v1H9zM10 5h1v1h-1zM13 5h1v1h-1zM2 6h1v1H2zM5 6h1v1H5zM10 6h1v1h-1zM13 6h1v1h-1zM14 6h1v1h-1zM15 6h1v1h-1zM0 7h1v1H0zM1 7h1v1H1zM2 7h1v1H2zM5 7h1v1H5zM10 7h1v1h-1zM13 7h1v1h-1zM2 8h1v1H2zM5 8h1v1H5zM10 8h1v1h-1zM13 8h1v1h-1zM14 8h1v1h-1zM15 8h1v1h-1zM0 9h1v1H0zM1 9h1v1H1zM2 9h1v1H2zM5 9h1v1H5zM10 9h1v1h-1zM13 9h1v1h-1zM2 10h1v1H2zM5 10h1v1H5zM6 10h1v1H6zM7 10h1v1H7zM8 10h1v1H8zM9 10h1v1H9zM10 10h1v1h-1zM13 10h1v1h-1zM14 10h1v1h-1zM15 10h1v1h-1zM0 11h1v1H0zM1 11h1v1H1zM2 11h1v1H2zM13 11h1v1h-1zM2 12h1v1H2zM13 12h1v1h-1zM3 13h1v1H3zM4 13h1v1H4zM5 13h1v1H5zM6 13h1v1H6zM7 13h1v1H7zM8 13h1v1H8zM9 13h1v1H9zM10 13h1v1h-1zM11 13h1v1h-1zM12 13h1v1h-1zM4 14h1v1H4zM6 14h1v1H6zM8 14h1v1H8zM10 14h1v1h-1zM4 15h1v1H4zM6 15h1v1H6zM8 15h1v1H8zM10 15h1v1h-1z"/></svg>