<svg width="16" height="16" xmlns="http://www.w3.org/2000/svg" shape-rendering="crispEdges"><path d="M2 0h1v1H2zM2 1h1v1H2zM0 2h1v1H0zM1 2h1v1H1zM2 2h1v1H2zM5 2h1v1H5zM6 2h1v1H6zM7 2h1v1H7zM8 2h1v1H8zM9 2h1v1H9zM10 2h1v1h-1zM11 2h1v1h-1zM12 2h1v1h-1zM13 2h1v1h-1zM14 2h1v1h-1zM2 3h1v1H2zM14 3h1v1h-1zM2 4h1v1H2zM14 4h1v1h-1zM2 5h1v1H2zM14 5h1v1h-1zM2 6h1v1H2zM14 6h1v1h-1zM2 7h1v1H2zM14 7h1v1h-1zM2 8h1v1H2zM14 8h1v1h-1zM2 9h1v1H2zM14 9h1v1h-1zM2 10h1v1H2zM14 10h1v1h-1zM2 11h1v1H2zM14 11h1v1h-1zM2 12h1v1H2zM2 13h1v1H2zM2 14h1v1H2zM3 14h1v1H3zM4 14h1v1H4zM5 14h1v1H5zM6 14h1v1H6zM7 14h1v1H7zM8 14h1v1H8zM9 14h1v1H9zM10 14h1v1h-1zM11 14h1v1h-1zM12 14h1v1h-1zM13 14h1v1h-1zM14 14h1v1h-1zM15 14h1v1h-1zM14 15h1v1h-1z"/></svg>