<svg width="16" height="16" xmlns="http://www.w3.org/2000/svg" shape-rendering="crispEdges"><path d="M6 3h1v1H6zM7 3h1v1H7zM8 3h1v1H8zM9 3h1v1H9zM6 4h1v1H6zM9 4h1v1H9zM6 5h1v1H6zM7 5h1v1H7zM8 5h1v1H8zM9 5h1v1H9zM7 6h1v1H7zM8 6h1v1H8zM4 7h1v1H4zM5 7h1v1H5zM6 7h1v1H6zM7 7h1v1H7zM8 7h1v1H8zM9 7h1v1H9zM10 7h1v1h-1zM11 7h1v1h-1zM4 8h1v1H4zM11 8h1v1h-1zM3 10h1v1H3zM4 10h1v1H4zM5 10h1v1H5zM10 10h1v1h-1zM11 10h1v1h-1zM12 10h1v1h-1zM3 11h1v1H3zM5 11h1v1H5zM10 11h1v1h-1zM12 11h1v1h-1zM3 12h1v1H3zM4 12h1v1H4zM5 12h1v1H5zM10 12h1v1h-1zM11 12h1v1h-1zM12 12h1v1h-1z"/></svg>