<svg width="16" height="16" xmlns="http://www.w3.org/2000/svg" shape-rendering="crispEdges"><path d="M5 0h1v1H5zM6 0h1v1H6zM7 0h1v1H7zM8 0h1v1H8zM9 0h1v1H9zM10 0h1v1h-1zM3 1h1v1H3zM4 1h1v1H4zM11 1h1v1h-1zM12 1h1v1h-1zM2 2h1v1H2zM13 2h1v1h-1zM1 3h1v1H1zM14 3h1v1h-1zM1 4h1v1H1zM14 4h1v1h-1zM0 5h1v1H0zM5 5h1v1H5zM10 5h1v1h-1zM15 5h1v1h-1zM0 6h1v1H0zM5 6h1v1H5zM10 6h1v1h-1zM15 6h1v1h-1zM0 7h1v1H0zM15 7h1v1h-1zM0 8h1v1H0zM15 8h1v1h-1zM0 9h1v1H0zM4 9h1v1H4zM11 9h1v1h-1zM15 9h1v1h-1zM0 10h1v1H0zM5 10h1v1H5zM10 10h1v1h-1zM15 10h1v1h-1zM1 11h1v1H1zM6 11h1v1H6zM7 11h1v1H7zM8 11h1v1H8zM9 11h1v1H9zM14 11h1v1h-1zM1 12h1v1H1zM14 12h1v1h-1zM2 13h1v1H2zM13 13h1v1h-1zM3 14h1v1H3zM4 14h1v1H4zM11 14h1v1h-1zM12 14h1v1h-1zM5 15h1v1H5zM6 15h1v1H6zM7 15h1v1H7zM8 15h1v1H8zM9 15h1v1H9zM10 15h1v1h-1z"/></svg>