<svg width="16" height="16" xmlns="http://www.w3.org/2000/svg" shape-rendering="crispEdges"><path d="M7 1h1v1H7zM8 1h1v1H8zM5 2h1v1H5zM6 2h1v1H6zM9 2h1v1H9zM10 2h1v1h-1zM4 3h1v1H4zM11 3h1v1h-1zM2 4h1v1H2zM3 4h1v1H3zM12 4h1v1h-1zM13 4h1v1h-1zM1 5h1v1H1zM14 5h1v1h-1zM0 6h1v1H0zM1 6h1v1H1zM14 6h1v1h-1zM15 6h1v1h-1zM0 7h1v1H0zM2 7h1v1H2zM7 7h1v1H7zM8 7h1v1H8zM13 7h1v1h-1zM15 7h1v1h-1zM0 8h1v1H0zM3 8h1v1H3zM6 8h1v1H6zM9 8h1v1H9zM12 8h1v1h-1zM15 8h1v1h-1zM0 9h1v1H0zM4 9h1v1H4zM5 9h1v1H5zM10 9h1v1h-1zM11 9h1v1h-1zM15 9h1v1h-1zM0 10h1v1H0zM4 10h1v1H4zM11 10h1v1h-1zM15 10h1v1h-1zM0 11h1v1H0zM3 11h1v1H3zM12 11h1v1h-1zM15 11h1v1h-1zM0 12h1v1H0zM2 12h1v1H2zM13 12h1v1h-1zM15 12h1v1h-1zM0 13h1v1H0zM1 13h1v1H1zM14 13h1v1h-1zM15 13h1v1h-1zM1 14h1v1H1zM2 14h1v1H2zM3 14h1v1H3zM4 14h1v1H4zM5 14h1v1H5zM6 14h1v1H6zM7 14h1v1H7zM8 14h1v1H8zM9 14h1v1H9zM10 14h1v1h-1zM11 14h1v1h-1zM12 14h1v1h-1zM13 14h1v1h-1zM14 14h1v1h-1z"/></svg>