<svg width="16" height="16" xmlns="http://www.w3.org/2000/svg" shape-rendering="crispEdges"><path d="M5 3h1v1H5zM6 3h1v1H6zM7 3h1v1H7zM8 3h1v1H8zM9 3h1v1H9zM10 3h1v1h-1zM3 4h1v1H3zM4 4h1v1H4zM11 4h1v1h-1zM12 4h1v1h-1zM2 5h1v1H2zM7 5h1v1H7zM8 5h1v1H8zM13 5h1v1h-1zM1 6h1v1H1zM6 6h1v1H6zM9 6h1v1H9zM14 6h1v1h-1zM0 7h1v1H0zM5 7h1v1H5zM10 7h1v1h-1zM15 7h1v1h-1zM0 8h1v1H0zM5 8h1v1H5zM10 8h1v1h-1zM15 8h1v1h-1zM1 9h1v1H1zM6 9h1v1H6zM9 9h1v1H9zM14 9h1v1h-1zM2 10h1v1H2zM7 10h1v1H7zM8 10h1v1H8zM13 10h1v1h-1zM3 11h1v1H3zM4 11h1v1H4zM11 11h1v1h-1zM12 11h1v1h-1zM5 12h1v1H5zM6 12h1v1H6zM7 12h1v1H7zM8 12h1v1H8zM9 12h1v1H9zM10 12h1v1h-1z"/></svg>