<svg width="16" height="16" xmlns="http://www.w3.org/2000/svg" shape-rendering="crispEdges"><path d="M0 0h1v1H0zM1 0h1v1H1zM2 0h1v1H2zM3 0h1v1H3zM4 0h1v1H4zM11 0h1v1h-1zM12 0h1v1h-1zM13 0h1v1h-1zM14 0h1v1h-1zM15 0h1v1h-1zM0 1h1v1H0zM15 1h1v1h-1zM0 2h1v1H0zM15 2h1v1h-1zM0 3h1v1H0zM15 3h1v1h-1zM0 4h1v1H0zM15 4h1v1h-1zM0 11h1v1H0zM15 11h1v1h-1zM0 12h1v1H0zM15 12h1v1h-1zM0 13h1v1H0zM15 13h1v1h-1zM0 14h1v1H0zM15 14h1v1h-1zM0 15h1v1H0zM1 15h1v1H1zM2 15h1v1H2zM3 15h1v1H3zM4 15h1v1H4zM11 15h1v1h-1zM12 15h1v1h-1zM13 15h1v1h-1zM14 15h1v1h-1zM15 15h1v1h-1z"/></svg>