<svg width="16" height="16" xmlns="http://www.w3.org/2000/svg" shape-rendering="crispEdges"><path d="M4 0h1v1H4zM11 0h1v1h-1zM4 1h1v1H4zM11 1h1v1h-1zM4 2h1v1H4zM11 2h1v1h-1zM4 3h1v1H4zM11 3h1v1h-1zM0 4h1v1H0zM1 4h1v1H1zM2 4h1v1H2zM3 4h1v1H3zM4 4h1v1H4zM11 4h1v1h-1zM12 4h1v1h-1zM13 4h1v1h-1zM14 4h1v1h-1zM15 4h1v1h-1zM0 11h1v1H0zM1 11h1v1H1zM2 11h1v1H2zM3 11h1v1H3zM4 11h1v1H4zM11 11h1v1h-1zM12 11h1v1h-1zM13 11h1v1h-1zM14 11h1v1h-1zM15 11h1v1h-1zM4 12h1v1H4zM11 12h1v1h-1zM4 13h1v1H4zM11 13h1v1h-1zM4 14h1v1H4zM11 14h1v1h-1zM4 15h1v1H4zM11 15h1v1h-1z"/></svg>