<svg width="16" height="16" xmlns="http://www.w3.org/2000/svg" shape-rendering="crispEdges"><path d="M7 0h1v1H7zM8 0h1v1H8zM6 1h1v1H6zM9 1h1v1H9zM3 2h1v1H3zM4 2h1v1H4zM6 2h1v1H6zM9 2h1v1H9zM11 2h1v1h-1zM12 2h1v1h-1zM2 3h1v1H2zM5 3h1v1H5zM10 3h1v1h-1zM13 3h1v1h-1zM2 4h1v1H2zM13 4h1v1h-1zM3 5h1v1H3zM7 5h1v1H7zM8 5h1v1H8zM12 5h1v1h-1zM1 6h1v1H1zM2 6h1v1H2zM6 6h1v1H6zM9 6h1v1H9zM13 6h1v1h-1zM14 6h1v1h-1zM0 7h1v1H0zM5 7h1v1H5zM10 7h1v1h-1zM15 7h1v1h-1zM0 8h1v1H0zM5 8h1v1H5zM10 8h1v1h-1zM15 8h1v1h-1zM1 9h1v1H1zM2 9h1v1H2zM6 9h1v1H6zM9 9h1v1H9zM13 9h1v1h-1zM14 9h1v1h-1zM3 10h1v1H3zM7 10h1v1H7zM8 10h1v1H8zM12 10h1v1h-1zM2 11h1v1H2zM13 11h1v1h-1zM2 12h1v1H2zM5 12h1v1H5zM10 12h1v1h-1zM13 12h1v1h-1zM3 13h1v1H3zM4 13h1v1H4zM6 13h1v1H6zM9 13h1v1H9zM11 13h1v1h-1zM12 13h1v1h-1zM6 14h1v1H6zM9 14h1v1H9zM7 15h1v1H7zM8 15h1v1H8z"/></svg>