<svg width="16" height="16" xmlns="http://www.w3.org/2000/svg" shape-rendering="crispEdges"><path d="M5 0h1v1H5zM6 0h1v1H6zM7 0h1v1H7zM8 0h1v1H8zM9 0h1v1H9zM10 0h1v1h-1zM4 1h1v1H4zM11 1h1v1h-1zM3 2h1v1H3zM12 2h1v1h-1zM2 3h1v1H2zM7 3h1v1H7zM8 3h1v1H8zM13 3h1v1h-1zM2 4h1v1H2zM6 4h1v1H6zM9 4h1v1H9zM13 4h1v1h-1zM2 5h1v1H2zM5 5h1v1H5zM10 5h1v1h-1zM13 5h1v1h-1zM2 6h1v1H2zM5 6h1v1H5zM10 6h1v1h-1zM13 6h1v1h-1zM2 7h1v1H2zM6 7h1v1H6zM9 7h1v1H9zM13 7h1v1h-1zM2 8h1v1H2zM7 8h1v1H7zM8 8h1v1H8zM13 8h1v1h-1zM3 9h1v1H3zM12 9h1v1h-1zM3 10h1v1H3zM12 10h1v1h-1zM4 11h1v1H4zM11 11h1v1h-1zM5 12h1v1H5zM10 12h1v1h-1zM5 13h1v1H5zM10 13h1v1h-1zM6 14h1v1H6zM9 14h1v1H9zM7 15h1v1H7zM8 15h1v1H8z"/></svg>