<svg width="16" height="16" xmlns="http://www.w3.org/2000/svg" shape-rendering="crispEdges"><path d="M5 0h1v1H5zM6 0h1v1H6zM7 0h1v1H7zM8 0h1v1H8zM9 0h1v1H9zM10 0h1v1h-1zM3 1h1v1H3zM4 1h1v1H4zM6 1h1v1H6zM7 1h1v1H7zM9 1h1v1H9zM11 1h1v1h-1zM12 1h1v1h-1zM2 2h1v1H2zM5 2h1v1H5zM7 2h1v1H7zM10 2h1v1h-1zM13 2h1v1h-1zM1 3h1v1H1zM5 3h1v1H5zM7 3h1v1H7zM10 3h1v1h-1zM14 3h1v1h-1zM1 4h1v1H1zM2 4h1v1H2zM3 4h1v1H3zM4 4h1v1H4zM5 4h1v1H5zM6 4h1v1H6zM7 4h1v1H7zM8 4h1v1H8zM9 4h1v1H9zM10 4h1v1h-1zM11 4h1v1h-1zM12 4h1v1h-1zM13 4h1v1h-1zM14 4h1v1h-1zM0 5h1v1H0zM4 5h1v1H4zM7 5h1v1H7zM11 5h1v1h-1zM15 5h1v1h-1zM0 6h1v1H0zM3 6h1v1H3zM7 6h1v1H7zM12 6h1v1h-1zM15 6h1v1h-1zM0 7h1v1H0zM1 7h1v1H1zM2 7h1v1H2zM3 7h1v1H3zM4 7h1v1H4zM5 7h1v1H5zM6 7h1v1H6zM7 7h1v1H7zM8 7h1v1H8zM9 7h1v1H9zM10 7h1v1h-1zM11 7h1v1h-1zM12 7h1v1h-1zM13 7h1v1h-1zM14 7h1v1h-1zM15 7h1v1h-1zM0 8h1v1H0zM3 8h1v1H3zM7 8h1v1H7zM12 8h1v1h-1zM15 8h1v1h-1zM0 9h1v1H0zM3 9h1v1H3zM7 9h1v1H7zM12 9h1v1h-1zM15 9h1v1h-1zM0 10h1v1H0zM4 10h1v1H4zM7 10h1v1H7zM11 10h1v1h-1zM15 10h1v1h-1zM1 11h1v1H1zM2 11h1v1H2zM3 11h1v1H3zM4 11h1v1H4zM5 11h1v1H5zM6 11h1v1H6zM7 11h1v1H7zM8 11h1v1H8zM9 11h1v1H9zM10 11h1v1h-1zM11 11h1v1h-1zM12 11h1v1h-1zM13 11h1v1h-1zM14 11h1v1h-1zM1 12h1v1H1zM5 12h1v1H5zM7 12h1v1H7zM10 12h1v1h-1zM14 12h1v1h-1zM2 13h1v1H2zM5 13h1v1H5zM7 13h1v1H7zM10 13h1v1h-1zM13 13h1v1h-1zM3 14h1v1H3zM4 14h1v1H4zM6 14h1v1H6zM7 14h1v1H7zM9 14h1v1H9zM11 14h1v1h-1zM12 14h1v1h-1zM5 15h1v1H5zM6 15h1v1H6zM7 15h1v1H7zM8 15h1v1H8zM9 15h1v1H9zM10 15h1v1h-1z"/></svg>