<svg width="16" height="16" xmlns="http://www.w3.org/2000/svg" shape-rendering="crispEdges"><path d="M1 1h1v1H1zM2 1h1v1H2zM3 1h1v1H3zM4 1h1v1H4zM5 1h1v1H5zM6 1h1v1H6zM9 1h1v1H9zM10 1h1v1h-1zM11 1h1v1h-1zM12 1h1v1h-1zM13 1h1v1h-1zM14 1h1v1h-1zM1 2h1v1H1zM6 2h1v1H6zM9 2h1v1H9zM14 2h1v1h-1zM1 3h1v1H1zM6 3h1v1H6zM9 3h1v1H9zM14 3h1v1h-1zM1 4h1v1H1zM6 4h1v1H6zM9 4h1v1H9zM14 4h1v1h-1zM1 5h1v1H1zM6 5h1v1H6zM9 5h1v1H9zM14 5h1v1h-1zM1 6h1v1H1zM2 6h1v1H2zM3 6h1v1H3zM4 6h1v1H4zM5 6h1v1H5zM6 6h1v1H6zM9 6h1v1H9zM10 6h1v1h-1zM11 6h1v1h-1zM12 6h1v1h-1zM13 6h1v1h-1zM14 6h1v1h-1zM1 9h1v1H1zM2 9h1v1H2zM3 9h1v1H3zM4 9h1v1H4zM5 9h1v1H5zM6 9h1v1H6zM9 9h1v1H9zM10 9h1v1h-1zM11 9h1v1h-1zM12 9h1v1h-1zM13 9h1v1h-1zM14 9h1v1h-1zM1 10h1v1H1zM6 10h1v1H6zM9 10h1v1H9zM14 10h1v1h-1zM1 11h1v1H1zM6 11h1v1H6zM9 11h1v1H9zM14 11h1v1h-1zM1 12h1v1H1zM6 12h1v1H6zM9 12h1v1H9zM14 12h1v1h-1zM1 13h1v1H1zM6 13h1v1H6zM9 13h1v1H9zM14 13h1v1h-1zM1 14h1v1H1zM2 14h1v1H2zM3 14h1v1H3zM4 14h1v1H4zM5 14h1v1H5zM6 14h1v1H6zM9 14h1v1H9zM10 14h1v1h-1zM11 14h1v1h-1zM12 14h1v1h-1zM13 14h1v1h-1zM14 14h1v1h-1z"/></svg>