<svg width="16" height="16" xmlns="http://www.w3.org/2000/svg" shape-rendering="crispEdges"><path d="M5 1h1v1H5zM6 1h1v1H6zM7 1h1v1H7zM8 1h1v1H8zM9 1h1v1H9zM4 2h1v1H4zM10 2h1v1h-1zM11 2h1v1h-1zM2 3h1v1H2zM3 3h1v1H3zM12 3h1v1h-1zM2 4h1v1H2zM10 4h1v1h-1zM11 4h1v1h-1zM2 5h1v1H2zM13 5h1v1h-1zM2 6h1v1H2zM11 6h1v1h-1zM12 6h1v1h-1zM2 7h1v1H2zM13 7h1v1h-1zM2 8h1v1H2zM11 8h1v1h-1zM12 8h1v1h-1zM2 9h1v1H2zM3 9h1v1H3zM13 9h1v1h-1zM4 10h1v1H4zM9 10h1v1H9zM10 10h1v1h-1zM11 10h1v1h-1zM12 10h1v1h-1zM5 11h1v1H5zM8 11h1v1H8zM6 12h1v1H6zM8 12h1v1H8zM6 13h1v1H6zM8 13h1v1H8zM7 14h1v1H7zM8 14h1v1H8z"/></svg>