<svg width="16" height="16" xmlns="http://www.w3.org/2000/svg" shape-rendering="crispEdges"><path d="M7 1h1v1H7zM8 1h1v1H8zM6 2h1v1H6zM8 2h1v1H8zM6 3h1v1H6zM8 3h1v1H8zM5 4h1v1H5zM8 4h1v1H8zM4 5h1v1H4zM9 5h1v1H9zM10 5h1v1h-1zM11 5h1v1h-1zM12 5h1v1h-1zM2 6h1v1H2zM3 6h1v1H3zM13 6h1v1h-1zM2 7h1v1H2zM11 7h1v1h-1zM12 7h1v1h-1zM2 8h1v1H2zM13 8h1v1h-1zM2 9h1v1H2zM11 9h1v1h-1zM12 9h1v1h-1zM2 10h1v1H2zM13 10h1v1h-1zM2 11h1v1H2zM10 11h1v1h-1zM11 11h1v1h-1zM2 12h1v1H2zM3 12h1v1H3zM12 12h1v1h-1zM4 13h1v1H4zM10 13h1v1h-1zM11 13h1v1h-1zM5 14h1v1H5zM6 14h1v1H6zM7 14h1v1H7zM8 14h1v1H8zM9 14h1v1H9z"/></svg>