<svg width="16" height="16" xmlns="http://www.w3.org/2000/svg" shape-rendering="crispEdges"><path d="M6 2h1v1H6zM7 2h1v1H7zM8 2h1v1H8zM9 2h1v1H9zM4 3h1v1H4zM5 3h1v1H5zM10 3h1v1h-1zM11 3h1v1h-1zM3 4h1v1H3zM12 4h1v1h-1zM3 5h1v1H3zM12 5h1v1h-1zM2 6h1v1H2zM13 6h1v1h-1zM2 7h1v1H2zM13 7h1v1h-1zM2 8h1v1H2zM13 8h1v1h-1zM2 9h1v1H2zM13 9h1v1h-1zM3 10h1v1H3zM4 10h1v1H4zM11 10h1v1h-1zM12 10h1v1h-1zM3 11h1v1H3zM4 11h1v1H4zM11 11h1v1h-1zM12 11h1v1h-1zM3 12h1v1H3zM4 12h1v1H4zM11 12h1v1h-1zM12 12h1v1h-1zM3 13h1v1H3zM4 13h1v1H4zM11 13h1v1h-1zM12 13h1v1h-1z"/></svg>