<svg width="16" height="16" xmlns="http://www.w3.org/2000/svg" shape-rendering="crispEdges"><path d="M7 2h1v1H7zM8 2h1v1H8zM11 2h1v1h-1zM6 3h1v1H6zM9 3h1v1H9zM11 3h1v1h-1zM5 4h1v1H5zM10 4h1v1h-1zM11 4h1v1h-1zM4 5h1v1H4zM11 5h1v1h-1zM3 6h1v1H3zM12 6h1v1h-1zM2 7h1v1H2zM3 7h1v1H3zM12 7h1v1h-1zM13 7h1v1h-1zM3 8h1v1H3zM12 8h1v1h-1zM3 9h1v1H3zM12 9h1v1h-1zM3 10h1v1H3zM12 10h1v1h-1zM3 11h1v1H3zM12 11h1v1h-1zM3 12h1v1H3zM12 12h1v1h-1zM4 13h1v1H4zM5 13h1v1H5zM6 13h1v1H6zM7 13h1v1H7zM8 13h1v1H8zM9 13h1v1H9zM10 13h1v1h-1zM11 13h1v1h-1z"/></svg>