<svg width="16" height="16" xmlns="http://www.w3.org/2000/svg" shape-rendering="crispEdges"><path d="M5 3h1v1H5zM6 3h1v1H6zM7 3h1v1H7zM8 3h1v1H8zM9 3h1v1H9zM10 3h1v1h-1zM4 4h1v1H4zM11 4h1v1h-1zM3 5h1v1H3zM12 5h1v1h-1zM2 6h1v1H2zM13 6h1v1h-1zM1 7h1v1H1zM14 7h1v1h-1zM0 8h1v1H0zM1 8h1v1H1zM2 8h1v1H2zM3 8h1v1H3zM4 8h1v1H4zM5 8h1v1H5zM10 8h1v1h-1zM11 8h1v1h-1zM12 8h1v1h-1zM13 8h1v1h-1zM14 8h1v1h-1zM15 8h1v1h-1zM0 9h1v1H0zM6 9h1v1H6zM9 9h1v1H9zM15 9h1v1h-1zM1 10h1v1H1zM7 10h1v1H7zM8 10h1v1H8zM14 10h1v1h-1zM1 11h1v1H1zM14 11h1v1h-1zM2 12h1v1H2zM3 12h1v1H3zM4 12h1v1H4zM5 12h1v1H5zM6 12h1v1H6zM7 12h1v1H7zM8 12h1v1H8zM9 12h1v1H9zM10 12h1v1h-1zM11 12h1v1h-1zM12 12h1v1h-1zM13 12h1v1h-1z"/></svg>