<svg width="16" height="16" xmlns="http://www.w3.org/2000/svg" shape-rendering="crispEdges"><path d="M2 4h1v1H2zM3 4h1v1H3zM4 4h1v1H4zM5 4h1v1H5zM1 5h1v1H1zM6 5h1v1H6zM0 6h1v1H0zM7 6h1v1H7zM8 6h1v1H8zM9 6h1v1H9zM10 6h1v1h-1zM11 6h1v1h-1zM12 6h1v1h-1zM13 6h1v1h-1zM0 7h1v1H0zM2 7h1v1H2zM3 7h1v1H3zM14 7h1v1h-1zM0 8h1v1H0zM2 8h1v1H2zM3 8h1v1H3zM9 8h1v1H9zM11 8h1v1h-1zM13 8h1v1h-1zM15 8h1v1h-1zM0 9h1v1H0zM7 9h1v1H7zM8 9h1v1H8zM10 9h1v1h-1zM12 9h1v1h-1zM14 9h1v1h-1zM1 10h1v1H1zM6 10h1v1H6zM2 11h1v1H2zM3 11h1v1H3zM4 11h1v1H4zM5 11h1v1H5z"/></svg>