<svg width="16" height="16" xmlns="http://www.w3.org/2000/svg" shape-rendering="crispEdges"><path d="M1 3h1v1H1zM2 3h1v1H2zM3 3h1v1H3zM4 3h1v1H4zM5 3h1v1H5zM6 3h1v1H6zM7 3h1v1H7zM8 3h1v1H8zM9 3h1v1H9zM10 3h1v1h-1zM11 3h1v1h-1zM12 3h1v1h-1zM13 3h1v1h-1zM14 3h1v1h-1zM0 4h1v1H0zM15 4h1v1h-1zM0 5h1v1H0zM2 5h1v1H2zM3 5h1v1H3zM5 5h1v1H5zM7 5h1v1H7zM9 5h1v1H9zM11 5h1v1h-1zM13 5h1v1h-1zM15 5h1v1h-1zM0 6h1v1H0zM15 6h1v1h-1zM0 7h1v1H0zM2 7h1v1H2zM4 7h1v1H4zM6 7h1v1H6zM8 7h1v1H8zM10 7h1v1h-1zM11 7h1v1h-1zM13 7h1v1h-1zM15 7h1v1h-1zM0 8h1v1H0zM15 8h1v1h-1zM0 9h1v1H0zM2 9h1v1H2zM4 9h1v1H4zM5 9h1v1H5zM6 9h1v1H6zM7 9h1v1H7zM8 9h1v1H8zM9 9h1v1H9zM11 9h1v1h-1zM13 9h1v1h-1zM15 9h1v1h-1zM0 10h1v1H0zM15 10h1v1h-1zM1 11h1v1H1zM2 11h1v1H2zM3 11h1v1H3zM4 11h1v1H4zM5 11h1v1H5zM6 11h1v1H6zM7 11h1v1H7zM8 11h1v1H8zM9 11h1v1H9zM10 11h1v1h-1zM11 11h1v1h-1zM12 11h1v1h-1zM13 11h1v1h-1zM14 11h1v1h-1z"/></svg>