<svg width="16" height="16" xmlns="http://www.w3.org/2000/svg" shape-rendering="crispEdges"><path d="M9 0h1v1H9zM10 0h1v1h-1zM8 1h1v1H8zM10 1h1v1h-1zM7 2h1v1H7zM10 2h1v1h-1zM6 3h1v1H6zM9 3h1v1H9zM6 4h1v1H6zM9 4h1v1H9zM5 5h1v1H5zM8 5h1v1H8zM4 6h1v1H4zM8 6h1v1H8zM9 6h1v1H9zM10 6h1v1h-1zM11 6h1v1h-1zM12 6h1v1h-1zM4 7h1v1H4zM12 7h1v1h-1zM3 8h1v1H3zM11 8h1v1h-1zM3 9h1v1H3zM4 9h1v1H4zM5 9h1v1H5zM6 9h1v1H6zM7 9h1v1H7zM11 9h1v1h-1zM7 10h1v1H7zM10 10h1v1h-1zM6 11h1v1H6zM9 11h1v1H9zM6 12h1v1H6zM9 12h1v1H9zM5 13h1v1H5zM8 13h1v1H8zM5 14h1v1H5zM7 14h1v1H7zM5 15h1v1H5zM6 15h1v1H6z"/></svg>