<svg width="16" height="16" xmlns="http://www.w3.org/2000/svg" shape-rendering="crispEdges"><path d="M4 0h1v1H4zM5 0h1v1H5zM6 0h1v1H6zM14 0h1v1h-1zM15 0h1v1h-1zM2 1h1v1H2zM3 1h1v1H3zM5 1h1v1H5zM7 1h1v1H7zM8 1h1v1H8zM12 1h1v1h-1zM13 1h1v1h-1zM15 1h1v1h-1zM1 2h1v1H1zM5 2h1v1H5zM9 2h1v1H9zM11 2h1v1h-1zM15 2h1v1h-1zM0 3h1v1H0zM5 3h1v1H5zM10 3h1v1h-1zM15 3h1v1h-1zM0 4h1v1H0zM5 4h1v1H5zM10 4h1v1h-1zM15 4h1v1h-1zM0 5h1v1H0zM5 5h1v1H5zM10 5h1v1h-1zM15 5h1v1h-1zM0 6h1v1H0zM5 6h1v1H5zM10 6h1v1h-1zM15 6h1v1h-1zM0 7h1v1H0zM5 7h1v1H5zM10 7h1v1h-1zM15 7h1v1h-1zM0 8h1v1H0zM5 8h1v1H5zM10 8h1v1h-1zM15 8h1v1h-1zM0 9h1v1H0zM5 9h1v1H5zM10 9h1v1h-1zM15 9h1v1h-1zM0 10h1v1H0zM5 10h1v1H5zM10 10h1v1h-1zM15 10h1v1h-1zM0 11h1v1H0zM5 11h1v1H5zM10 11h1v1h-1zM15 11h1v1h-1zM0 12h1v1H0zM5 12h1v1H5zM10 12h1v1h-1zM15 12h1v1h-1zM0 13h1v1H0zM4 13h1v1H4zM6 13h1v1H6zM10 13h1v1h-1zM14 13h1v1h-1zM0 14h1v1H0zM2 14h1v1H2zM3 14h1v1H3zM7 14h1v1H7zM8 14h1v1H8zM10 14h1v1h-1zM12 14h1v1h-1zM13 14h1v1h-1zM0 15h1v1H0zM1 15h1v1H1zM9 15h1v1H9zM10 15h1v1h-1zM11 15h1v1h-1z"/></svg>