<svg width="16" height="16" xmlns="http://www.w3.org/2000/svg" shape-rendering="crispEdges"><path d="M7 0h1v1H7zM8 0h1v1H8zM6 1h1v1H6zM9 1h1v1H9zM5 2h1v1H5zM10 2h1v1h-1zM5 3h1v1H5zM10 3h1v1h-1zM5 4h1v1H5zM10 4h1v1h-1zM5 5h1v1H5zM10 5h1v1h-1zM3 6h1v1H3zM5 6h1v1H5zM10 6h1v1h-1zM12 6h1v1h-1zM3 7h1v1H3zM5 7h1v1H5zM10 7h1v1h-1zM12 7h1v1h-1zM3 8h1v1H3zM5 8h1v1H5zM10 8h1v1h-1zM12 8h1v1h-1zM3 9h1v1H3zM6 9h1v1H6zM9 9h1v1H9zM12 9h1v1h-1zM4 10h1v1H4zM7 10h1v1H7zM8 10h1v1H8zM11 10h1v1h-1zM5 11h1v1H5zM10 11h1v1h-1zM6 12h1v1H6zM7 12h1v1H7zM8 12h1v1H8zM9 12h1v1H9zM7 13h1v1H7zM8 13h1v1H8zM7 14h1v1H7zM8 14h1v1H8zM5 15h1v1H5zM6 15h1v1H6zM7 15h1v1H7zM8 15h1v1H8zM9 15h1v1H9zM10 15h1v1h-1z"/></svg>