<svg width="16" height="16" xmlns="http://www.w3.org/2000/svg" shape-rendering="crispEdges"><path d="M6 0h1v1H6zM7 0h1v1H7zM8 0h1v1H8zM9 0h1v1H9zM5 1h1v1H5zM10 1h1v1h-1zM4 2h1v1H4zM11 2h1v1h-1zM3 3h1v1H3zM7 3h1v1H7zM8 3h1v1H8zM12 3h1v1h-1zM3 4h1v1H3zM7 4h1v1H7zM8 4h1v1H8zM12 4h1v1h-1zM3 5h1v1H3zM7 5h1v1H7zM8 5h1v1H8zM12 5h1v1h-1zM3 6h1v1H3zM7 6h1v1H7zM8 6h1v1H8zM12 6h1v1h-1zM3 7h1v1H3zM12 7h1v1h-1zM3 8h1v1H3zM12 8h1v1h-1zM3 9h1v1H3zM12 9h1v1h-1zM3 10h1v1H3zM12 10h1v1h-1zM3 11h1v1H3zM12 11h1v1h-1zM3 12h1v1H3zM12 12h1v1h-1zM4 13h1v1H4zM11 13h1v1h-1zM5 14h1v1H5zM10 14h1v1h-1zM6 15h1v1H6zM7 15h1v1H7zM8 15h1v1H8zM9 15h1v1H9z"/></svg>