<svg width="16" height="16" xmlns="http://www.w3.org/2000/svg" shape-rendering="crispEdges"><path d="M1 2h1v1H1zM2 2h1v1H2zM3 2h1v1H3zM4 2h1v1H4zM5 2h1v1H5zM6 2h1v1H6zM7 2h1v1H7zM8 2h1v1H8zM9 2h1v1H9zM10 2h1v1h-1zM11 2h1v1h-1zM12 2h1v1h-1zM13 2h1v1h-1zM14 2h1v1h-1zM0 3h1v1H0zM15 3h1v1h-1zM0 4h1v1H0zM5 4h1v1H5zM6 4h1v1H6zM9 4h1v1H9zM10 4h1v1h-1zM15 4h1v1h-1zM0 5h1v1H0zM5 5h1v1H5zM6 5h1v1H6zM9 5h1v1H9zM10 5h1v1h-1zM15 5h1v1h-1zM0 6h1v1H0zM5 6h1v1H5zM6 6h1v1H6zM9 6h1v1H9zM10 6h1v1h-1zM15 6h1v1h-1zM0 7h1v1H0zM5 7h1v1H5zM6 7h1v1H6zM9 7h1v1H9zM10 7h1v1h-1zM15 7h1v1h-1zM0 8h1v1H0zM5 8h1v1H5zM6 8h1v1H6zM9 8h1v1H9zM10 8h1v1h-1zM15 8h1v1h-1zM0 9h1v1H0zM5 9h1v1H5zM6 9h1v1H6zM9 9h1v1H9zM10 9h1v1h-1zM15 9h1v1h-1zM0 10h1v1H0zM5 10h1v1H5zM6 10h1v1H6zM9 10h1v1H9zM10 10h1v1h-1zM15 10h1v1h-1zM0 11h1v1H0zM5 11h1v1H5zM6 11h1v1H6zM9 11h1v1H9zM10 11h1v1h-1zM15 11h1v1h-1zM0 12h1v1H0zM15 12h1v1h-1zM1 13h1v1H1zM2 13h1v1H2zM3 13h1v1H3zM4 13h1v1H4zM5 13h1v1H5zM6 13h1v1H6zM7 13h1v1H7zM8 13h1v1H8zM9 13h1v1H9zM10 13h1v1h-1zM11 13h1v1h-1zM12 13h1v1h-1zM13 13h1v1h-1zM14 13h1v1h-1z"/></svg>