<svg width="16" height="16" xmlns="http://www.w3.org/2000/svg" shape-rendering="crispEdges"><path d="M13 0h1v1h-1zM12 1h1v1h-1zM13 1h1v1h-1zM14 1h1v1h-1zM12 2h1v1h-1zM13 2h1v1h-1zM14 2h1v1h-1zM15 2h1v1h-1zM10 3h1v1h-1zM13 3h1v1h-1zM14 3h1v1h-1zM9 4h1v1H9zM10 4h1v1h-1zM11 4h1v1h-1zM8 5h1v1H8zM9 5h1v1H9zM10 5h1v1h-1zM11 5h1v1h-1zM12 5h1v1h-1zM7 6h1v1H7zM8 6h1v1H8zM9 6h1v1H9zM10 6h1v1h-1zM11 6h1v1h-1zM6 7h1v1H6zM7 7h1v1H7zM8 7h1v1H8zM9 7h1v1H9zM10 7h1v1h-1zM5 8h1v1H5zM6 8h1v1H6zM7 8h1v1H7zM8 8h1v1H8zM9 8h1v1H9zM4 9h1v1H4zM5 9h1v1H5zM6 9h1v1H6zM7 9h1v1H7zM8 9h1v1H8zM4 10h1v1H4zM5 10h1v1H5zM6 10h1v1H6zM7 10h1v1H7zM2 11h1v1H2zM5 11h1v1H5zM6 11h1v1H6zM1 12h1v1H1zM2 12h1v1H2zM3 12h1v1H3zM0 13h1v1H0zM1 13h1v1H1zM2 13h1v1H2zM3 13h1v1H3zM4 13h1v1H4zM0 14h1v1H0zM1 14h1v1H1zM2 14h1v1H2zM3 14h1v1H3zM0 15h1v1H0zM1 15h1v1H1zM2 15h1v1H2z"/></svg>