<svg width="16" height="16" xmlns="http://www.w3.org/2000/svg" shape-rendering="crispEdges"><path d="M14 0h1v1h-1zM1 1h1v1H1zM2 1h1v1H2zM3 1h1v1H3zM4 1h1v1H4zM5 1h1v1H5zM6 1h1v1H6zM7 1h1v1H7zM8 1h1v1H8zM9 1h1v1H9zM10 1h1v1h-1zM13 1h1v1h-1zM14 1h1v1h-1zM15 1h1v1h-1zM0 2h1v1H0zM14 2h1v1h-1zM0 3h1v1H0zM11 3h1v1h-1zM12 3h1v1h-1zM0 4h1v1H0zM10 4h1v1h-1zM11 4h1v1h-1zM12 4h1v1h-1zM0 5h1v1H0zM9 5h1v1H9zM10 5h1v1h-1zM11 5h1v1h-1zM14 5h1v1h-1zM0 6h1v1H0zM8 6h1v1H8zM9 6h1v1H9zM10 6h1v1h-1zM14 6h1v1h-1zM0 7h1v1H0zM7 7h1v1H7zM8 7h1v1H8zM9 7h1v1H9zM14 7h1v1h-1zM0 8h1v1H0zM6 8h1v1H6zM7 8h1v1H7zM8 8h1v1H8zM14 8h1v1h-1zM0 9h1v1H0zM5 9h1v1H5zM6 9h1v1H6zM7 9h1v1H7zM14 9h1v1h-1zM0 10h1v1H0zM4 10h1v1H4zM5 10h1v1H5zM6 10h1v1H6zM14 10h1v1h-1zM0 11h1v1H0zM3 11h1v1H3zM4 11h1v1H4zM5 11h1v1H5zM14 11h1v1h-1zM0 12h1v1H0zM3 12h1v1H3zM4 12h1v1H4zM14 12h1v1h-1zM0 13h1v1H0zM2 13h1v1H2zM14 13h1v1h-1zM0 14h1v1H0zM14 14h1v1h-1zM1 15h1v1H1zM2 15h1v1H2zM3 15h1v1H3zM4 15h1v1H4zM5 15h1v1H5zM6 15h1v1H6zM7 15h1v1H7zM8 15h1v1H8zM9 15h1v1H9zM10 15h1v1h-1zM11 15h1v1h-1zM12 15h1v1h-1zM13 15h1v1h-1z"/></svg>