<svg width="16" height="16" xmlns="http://www.w3.org/2000/svg" shape-rendering="crispEdges"><path d="M10 2h1v1h-1zM11 2h1v1h-1zM3 3h1v1H3zM4 3h1v1H4zM9 3h1v1H9zM12 3h1v1h-1zM2 4h1v1H2zM5 4h1v1H5zM8 4h1v1H8zM13 4h1v1h-1zM1 5h1v1H1zM6 5h1v1H6zM8 5h1v1H8zM13 5h1v1h-1zM1 6h1v1H1zM6 6h1v1H6zM9 6h1v1H9zM12 6h1v1h-1zM2 7h1v1H2zM5 7h1v1H5zM10 7h1v1h-1zM11 7h1v1h-1zM3 8h1v1H3zM4 8h1v1H4zM9 9h1v1H9zM10 9h1v1h-1zM11 9h1v1h-1zM12 9h1v1h-1zM2 10h1v1H2zM3 10h1v1H3zM4 10h1v1H4zM5 10h1v1H5zM8 10h1v1H8zM13 10h1v1h-1zM1 11h1v1H1zM5 11h1v1H5zM7 11h1v1H7zM14 11h1v1h-1zM0 12h1v1H0zM4 12h1v1H4zM6 12h1v1H6zM15 12h1v1h-1zM1 13h1v1H1zM2 13h1v1H2zM3 13h1v1H3zM4 13h1v1H4zM7 13h1v1H7zM8 13h1v1H8zM9 13h1v1H9zM10 13h1v1h-1zM11 13h1v1h-1zM12 13h1v1h-1zM13 13h1v1h-1zM14 13h1v1h-1z"/></svg>