<svg width="16" height="16" xmlns="http://www.w3.org/2000/svg" shape-rendering="crispEdges"><path d="M4 0h1v1H4zM5 0h1v1H5zM6 0h1v1H6zM7 0h1v1H7zM8 0h1v1H8zM9 0h1v1H9zM10 0h1v1h-1zM11 0h1v1h-1zM5 1h1v1H5zM10 1h1v1h-1zM6 2h1v1H6zM9 2h1v1H9zM6 3h1v1H6zM9 3h1v1H9zM6 4h1v1H6zM9 4h1v1H9zM6 5h1v1H6zM9 5h1v1H9zM4 6h1v1H4zM5 6h1v1H5zM10 6h1v1h-1zM11 6h1v1h-1zM3 7h1v1H3zM12 7h1v1h-1zM4 8h1v1H4zM5 8h1v1H5zM6 8h1v1H6zM7 8h1v1H7zM8 8h1v1H8zM9 8h1v1H9zM10 8h1v1h-1zM11 8h1v1h-1zM7 9h1v1H7zM8 9h1v1H8zM7 10h1v1H7zM8 10h1v1H8zM7 11h1v1H7zM8 11h1v1H8zM7 12h1v1H7zM8 12h1v1H8zM7 13h1v1H7zM8 13h1v1H8zM7 14h1v1H7zM8 14h1v1H8zM7 15h1v1H7zM8 15h1v1H8z"/></svg>