<svg width="16" height="16" xmlns="http://www.w3.org/2000/svg" shape-rendering="crispEdges"><path d="M3 2h1v1H3zM4 2h1v1H4zM5 2h1v1H5zM6 2h1v1H6zM7 2h1v1H7zM8 2h1v1H8zM9 2h1v1H9zM10 2h1v1h-1zM11 2h1v1h-1zM12 2h1v1h-1zM3 3h1v1H3zM12 3h1v1h-1zM3 4h1v1H3zM12 4h1v1h-1zM3 5h1v1H3zM12 5h1v1h-1zM0 6h1v1H0zM1 6h1v1H1zM2 6h1v1H2zM3 6h1v1H3zM4 6h1v1H4zM5 6h1v1H5zM6 6h1v1H6zM7 6h1v1H7zM8 6h1v1H8zM9 6h1v1H9zM10 6h1v1h-1zM11 6h1v1h-1zM12 6h1v1h-1zM13 6h1v1h-1zM14 6h1v1h-1zM15 6h1v1h-1zM0 7h1v1H0zM15 7h1v1h-1zM0 8h1v1H0zM2 8h1v1H2zM15 8h1v1h-1zM0 9h1v1H0zM3 9h1v1H3zM4 9h1v1H4zM5 9h1v1H5zM6 9h1v1H6zM7 9h1v1H7zM8 9h1v1H8zM9 9h1v1H9zM10 9h1v1h-1zM11 9h1v1h-1zM12 9h1v1h-1zM15 9h1v1h-1zM0 10h1v1H0zM3 10h1v1H3zM12 10h1v1h-1zM15 10h1v1h-1zM0 11h1v1H0zM1 11h1v1H1zM2 11h1v1H2zM3 11h1v1H3zM12 11h1v1h-1zM13 11h1v1h-1zM14 11h1v1h-1zM15 11h1v1h-1zM3 12h1v1H3zM12 12h1v1h-1zM3 13h1v1H3zM12 13h1v1h-1zM3 14h1v1H3zM4 14h1v1H4zM5 14h1v1H5zM6 14h1v1H6zM7 14h1v1H7zM8 14h1v1H8zM9 14h1v1H9zM10 14h1v1h-1zM11 14h1v1h-1zM12 14h1v1h-1z"/></svg>