<svg width="16" height="16" xmlns="http://www.w3.org/2000/svg" shape-rendering="crispEdges"><path d="M5 2h1v1H5zM7 2h1v1H7zM4 3h1v1H4zM6 3h1v1H6zM8 3h1v1H8zM3 4h1v1H3zM5 4h1v1H5zM8 4h1v1H8zM9 4h1v1H9zM2 5h1v1H2zM4 5h1v1H4zM10 5h1v1h-1zM11 5h1v1h-1zM1 6h1v1H1zM3 6h1v1H3zM12 6h1v1h-1zM1 7h1v1H1zM3 7h1v1H3zM12 7h1v1h-1zM2 8h1v1H2zM4 8h1v1H4zM13 8h1v1h-1zM3 9h1v1H3zM5 9h1v1H5zM8 9h1v1H8zM9 9h1v1H9zM10 9h1v1h-1zM13 9h1v1h-1zM4 10h1v1H4zM6 10h1v1H6zM8 10h1v1H8zM11 10h1v1h-1zM13 10h1v1h-1zM5 11h1v1H5zM7 11h1v1H7zM12 11h1v1h-1zM13 11h1v1h-1zM13 12h1v1h-1z"/></svg>