<svg width="16" height="16" xmlns="http://www.w3.org/2000/svg" shape-rendering="crispEdges"><path d="M13 0h1v1h-1zM14 0h1v1h-1zM12 1h1v1h-1zM15 1h1v1h-1zM12 2h1v1h-1zM15 2h1v1h-1zM10 3h1v1h-1zM11 3h1v1h-1zM13 3h1v1h-1zM14 3h1v1h-1zM8 4h1v1H8zM9 4h1v1H9zM6 5h1v1H6zM7 5h1v1H7zM1 6h1v1H1zM2 6h1v1H2zM4 6h1v1H4zM5 6h1v1H5zM0 7h1v1H0zM3 7h1v1H3zM0 8h1v1H0zM3 8h1v1H3zM1 9h1v1H1zM2 9h1v1H2zM4 9h1v1H4zM5 9h1v1H5zM6 10h1v1H6zM7 10h1v1H7zM8 11h1v1H8zM9 11h1v1H9zM10 12h1v1h-1zM11 12h1v1h-1zM13 12h1v1h-1zM14 12h1v1h-1zM12 13h1v1h-1zM15 13h1v1h-1zM12 14h1v1h-1zM15 14h1v1h-1zM13 15h1v1h-1zM14 15h1v1h-1z"/></svg>