<svg width="16" height="16" xmlns="http://www.w3.org/2000/svg" shape-rendering="crispEdges"><path d="M3 4h1v1H3zM8 4h1v1H8zM12 4h1v1h-1zM2 5h1v1H2zM3 5h1v1H3zM4 5h1v1H4zM7 5h1v1H7zM8 5h1v1H8zM9 5h1v1H9zM12 5h1v1h-1zM2 6h1v1H2zM3 6h1v1H3zM4 6h1v1H4zM5 6h1v1H5zM7 6h1v1H7zM8 6h1v1H8zM9 6h1v1H9zM10 6h1v1h-1zM12 6h1v1h-1zM2 7h1v1H2zM3 7h1v1H3zM4 7h1v1H4zM5 7h1v1H5zM6 7h1v1H6zM7 7h1v1H7zM8 7h1v1H8zM9 7h1v1H9zM10 7h1v1h-1zM11 7h1v1h-1zM12 7h1v1h-1zM2 8h1v1H2zM3 8h1v1H3zM4 8h1v1H4zM5 8h1v1H5zM6 8h1v1H6zM7 8h1v1H7zM8 8h1v1H8zM9 8h1v1H9zM10 8h1v1h-1zM11 8h1v1h-1zM12 8h1v1h-1zM2 9h1v1H2zM3 9h1v1H3zM4 9h1v1H4zM5 9h1v1H5zM7 9h1v1H7zM8 9h1v1H8zM9 9h1v1H9zM10 9h1v1h-1zM12 9h1v1h-1zM2 10h1v1H2zM3 10h1v1H3zM4 10h1v1H4zM7 10h1v1H7zM8 10h1v1H8zM9 10h1v1H9zM12 10h1v1h-1zM3 11h1v1H3zM8 11h1v1H8zM12 11h1v1h-1z"/></svg>