<svg width="16" height="16" xmlns="http://www.w3.org/2000/svg" shape-rendering="crispEdges"><path d="M3 4h1v1H3zM7 4h1v1H7zM12 4h1v1h-1zM3 5h1v1H3zM6 5h1v1H6zM8 5h1v1H8zM11 5h1v1h-1zM13 5h1v1h-1zM3 6h1v1H3zM5 6h1v1H5zM8 6h1v1H8zM10 6h1v1h-1zM13 6h1v1h-1zM3 7h1v1H3zM4 7h1v1H4zM8 7h1v1H8zM9 7h1v1H9zM13 7h1v1h-1zM3 8h1v1H3zM4 8h1v1H4zM8 8h1v1H8zM9 8h1v1H9zM13 8h1v1h-1zM3 9h1v1H3zM5 9h1v1H5zM8 9h1v1H8zM10 9h1v1h-1zM13 9h1v1h-1zM3 10h1v1H3zM6 10h1v1H6zM8 10h1v1H8zM11 10h1v1h-1zM13 10h1v1h-1zM3 11h1v1H3zM7 11h1v1H7zM12 11h1v1h-1z"/></svg>