<svg width="16" height="16" xmlns="http://www.w3.org/2000/svg" shape-rendering="crispEdges"><path d="M3 4h1v1H3zM8 4h1v1H8zM12 4h1v1h-1zM2 5h1v1H2zM4 5h1v1H4zM7 5h1v1H7zM9 5h1v1H9zM12 5h1v1h-1zM2 6h1v1H2zM5 6h1v1H5zM7 6h1v1H7zM10 6h1v1h-1zM12 6h1v1h-1zM2 7h1v1H2zM6 7h1v1H6zM7 7h1v1H7zM11 7h1v1h-1zM12 7h1v1h-1zM2 8h1v1H2zM6 8h1v1H6zM7 8h1v1H7zM11 8h1v1h-1zM12 8h1v1h-1zM2 9h1v1H2zM5 9h1v1H5zM7 9h1v1H7zM10 9h1v1h-1zM12 9h1v1h-1zM2 10h1v1H2zM4 10h1v1H4zM7 10h1v1H7zM9 10h1v1H9zM12 10h1v1h-1zM3 11h1v1H3zM8 11h1v1H8zM12 11h1v1h-1z"/></svg>