<svg width="16" height="16" xmlns="http://www.w3.org/2000/svg" shape-rendering="crispEdges"><path d="M9 1h1v1H9zM10 1h1v1h-1zM11 1h1v1h-1zM8 2h1v1H8zM12 2h1v1h-1zM1 3h1v1H1zM2 3h1v1H2zM3 3h1v1H3zM4 3h1v1H4zM5 3h1v1H5zM6 3h1v1H6zM7 3h1v1H7zM8 3h1v1H8zM12 3h1v1h-1zM13 3h1v1h-1zM14 3h1v1h-1zM8 4h1v1H8zM12 4h1v1h-1zM4 5h1v1H4zM5 5h1v1H5zM6 5h1v1H6zM9 5h1v1H9zM10 5h1v1h-1zM11 5h1v1h-1zM3 6h1v1H3zM7 6h1v1H7zM1 7h1v1H1zM2 7h1v1H2zM3 7h1v1H3zM7 7h1v1H7zM8 7h1v1H8zM9 7h1v1H9zM10 7h1v1h-1zM11 7h1v1h-1zM12 7h1v1h-1zM13 7h1v1h-1zM14 7h1v1h-1zM3 8h1v1H3zM7 8h1v1H7zM4 9h1v1H4zM5 9h1v1H5zM6 9h1v1H6zM9 9h1v1H9zM10 9h1v1h-1zM11 9h1v1h-1zM8 10h1v1H8zM12 10h1v1h-1zM1 11h1v1H1zM2 11h1v1H2zM3 11h1v1H3zM4 11h1v1H4zM5 11h1v1H5zM6 11h1v1H6zM7 11h1v1H7zM8 11h1v1H8zM12 11h1v1h-1zM13 11h1v1h-1zM14 11h1v1h-1zM8 12h1v1H8zM12 12h1v1h-1zM9 13h1v1H9zM10 13h1v1h-1zM11 13h1v1h-1z"/></svg>