<svg width="16" height="16" xmlns="http://www.w3.org/2000/svg" shape-rendering="crispEdges"><path d="M3 2h1v1H3zM2 3h1v1H2zM3 3h1v1H3zM4 3h1v1H4zM7 3h1v1H7zM8 3h1v1H8zM1 4h1v1H1zM3 4h1v1H3zM5 4h1v1H5zM3 5h1v1H3zM3 6h1v1H3zM7 6h1v1H7zM8 6h1v1H8zM9 6h1v1H9zM10 6h1v1h-1zM3 7h1v1H3zM3 8h1v1H3zM3 9h1v1H3zM7 9h1v1H7zM8 9h1v1H8zM9 9h1v1H9zM10 9h1v1h-1zM11 9h1v1h-1zM12 9h1v1h-1zM3 10h1v1H3zM3 11h1v1H3zM3 12h1v1H3zM7 12h1v1H7zM8 12h1v1H8zM9 12h1v1H9zM10 12h1v1h-1zM11 12h1v1h-1zM12 12h1v1h-1zM13 12h1v1h-1zM14 12h1v1h-1zM3 13h1v1H3z"/></svg>