<svg width="16" height="16" xmlns="http://www.w3.org/2000/svg" shape-rendering="crispEdges"><path d="M6 3h1v1H6zM2 4h1v1H2zM3 4h1v1H3zM6 4h1v1H6zM12 4h1v1h-1zM13 4h1v1h-1zM14 4h1v1h-1zM4 5h1v1H4zM6 5h1v1H6zM7 5h1v1H7zM8 5h1v1H8zM11 5h1v1h-1zM2 6h1v1H2zM3 6h1v1H3zM4 6h1v1H4zM6 6h1v1H6zM9 6h1v1H9zM11 6h1v1h-1zM1 7h1v1H1zM6 7h1v1H6zM9 7h1v1H9zM11 7h1v1h-1zM14 7h1v1h-1zM2 8h1v1H2zM3 8h1v1H3zM4 8h1v1H4zM6 8h1v1H6zM7 8h1v1H7zM8 8h1v1H8zM12 8h1v1h-1zM13 8h1v1h-1zM14 8h1v1h-1zM12 9h1v1h-1zM13 9h1v1h-1zM6 10h1v1H6zM7 10h1v1H7zM11 10h1v1h-1zM12 10h1v1h-1zM7 11h1v1H7zM8 11h1v1H8zM10 11h1v1h-1zM11 11h1v1h-1zM8 12h1v1H8zM9 12h1v1H9zM10 12h1v1h-1zM9 13h1v1H9z"/></svg>