<svg width="16" height="16" xmlns="http://www.w3.org/2000/svg" shape-rendering="crispEdges"><path d="M7 1h1v1H7zM8 1h1v1H8zM6 2h1v1H6zM9 2h1v1H9zM6 3h1v1H6zM9 3h1v1H9zM5 4h1v1H5zM10 4h1v1h-1zM1 5h1v1H1zM2 5h1v1H2zM3 5h1v1H3zM4 5h1v1H4zM11 5h1v1h-1zM12 5h1v1h-1zM13 5h1v1h-1zM14 5h1v1h-1zM1 6h1v1H1zM14 6h1v1h-1zM2 7h1v1H2zM13 7h1v1h-1zM3 8h1v1H3zM12 8h1v1h-1zM4 9h1v1H4zM11 9h1v1h-1zM4 10h1v1H4zM11 10h1v1h-1zM4 11h1v1H4zM7 11h1v1H7zM8 11h1v1H8zM11 11h1v1h-1zM3 12h1v1H3zM6 12h1v1H6zM9 12h1v1H9zM12 12h1v1h-1zM3 13h1v1H3zM5 13h1v1H5zM10 13h1v1h-1zM12 13h1v1h-1zM3 14h1v1H3zM4 14h1v1H4zM11 14h1v1h-1zM12 14h1v1h-1z"/></svg>