<svg width="16" height="16" xmlns="http://www.w3.org/2000/svg" shape-rendering="crispEdges"><path d="M6 1h1v1H6zM7 1h1v1H7zM8 1h1v1H8zM7 2h1v1H7zM5 3h1v1H5zM6 3h1v1H6zM7 3h1v1H7zM8 3h1v1H8zM9 3h1v1H9zM11 3h1v1h-1zM4 4h1v1H4zM10 4h1v1h-1zM11 4h1v1h-1zM12 4h1v1h-1zM3 5h1v1H3zM7 5h1v1H7zM11 5h1v1h-1zM2 6h1v1H2zM7 6h1v1H7zM12 6h1v1h-1zM2 7h1v1H2zM7 7h1v1H7zM12 7h1v1h-1zM2 8h1v1H2zM4 8h1v1H4zM5 8h1v1H5zM6 8h1v1H6zM7 8h1v1H7zM12 8h1v1h-1zM2 9h1v1H2zM12 9h1v1h-1zM2 10h1v1H2zM12 10h1v1h-1zM3 11h1v1H3zM11 11h1v1h-1zM4 12h1v1H4zM10 12h1v1h-1zM5 13h1v1H5zM6 13h1v1H6zM7 13h1v1H7zM8 13h1v1H8zM9 13h1v1H9z"/></svg>