<svg width="16" height="16" xmlns="http://www.w3.org/2000/svg" shape-rendering="crispEdges"><path d="M2 3h1v1H2zM3 3h1v1H3zM4 3h1v1H4zM5 3h1v1H5zM6 3h1v1H6zM7 3h1v1H7zM8 3h1v1H8zM9 3h1v1H9zM10 3h1v1h-1zM11 3h1v1h-1zM12 3h1v1h-1zM13 3h1v1h-1zM2 4h1v1H2zM3 4h1v1H3zM4 4h1v1H4zM5 4h1v1H5zM6 4h1v1H6zM7 4h1v1H7zM8 4h1v1H8zM9 4h1v1H9zM10 4h1v1h-1zM11 4h1v1h-1zM12 4h1v1h-1zM13 4h1v1h-1zM2 5h1v1H2zM3 5h1v1H3zM5 5h1v1H5zM6 5h1v1H6zM8 5h1v1H8zM9 5h1v1H9zM12 5h1v1h-1zM13 5h1v1h-1zM2 6h1v1H2zM3 6h1v1H3zM6 6h1v1H6zM9 6h1v1H9zM12 6h1v1h-1zM13 6h1v1h-1zM2 7h1v1H2zM3 7h1v1H3zM12 7h1v1h-1zM13 7h1v1h-1zM2 8h1v1H2zM3 8h1v1H3zM12 8h1v1h-1zM13 8h1v1h-1zM2 9h1v1H2zM3 9h1v1H3zM6 9h1v1H6zM9 9h1v1H9zM12 9h1v1h-1zM13 9h1v1h-1zM2 10h1v1H2zM3 10h1v1H3zM5 10h1v1H5zM6 10h1v1H6zM8 10h1v1H8zM9 10h1v1H9zM12 10h1v1h-1zM13 10h1v1h-1zM2 11h1v1H2zM3 11h1v1H3zM4 11h1v1H4zM5 11h1v1H5zM6 11h1v1H6zM7 11h1v1H7zM8 11h1v1H8zM9 11h1v1H9zM10 11h1v1h-1zM11 11h1v1h-1zM12 11h1v1h-1zM13 11h1v1h-1zM2 12h1v1H2zM3 12h1v1H3zM4 12h1v1H4zM5 12h1v1H5zM6 12h1v1H6zM7 12h1v1H7zM8 12h1v1H8zM9 12h1v1H9zM10 12h1v1h-1zM11 12h1v1h-1zM12 12h1v1h-1zM13 12h1v1h-1z"/></svg>