<svg width="16" height="16" xmlns="http://www.w3.org/2000/svg" shape-rendering="crispEdges"><path d="M2 2h1v1H2zM3 2h1v1H3zM4 2h1v1H4zM5 2h1v1H5zM10 2h1v1h-1zM11 2h1v1h-1zM12 2h1v1h-1zM13 2h1v1h-1zM1 3h1v1H1zM6 3h1v1H6zM9 3h1v1H9zM14 3h1v1h-1zM0 4h1v1H0zM7 4h1v1H7zM8 4h1v1H8zM15 4h1v1h-1zM0 5h1v1H0zM15 5h1v1h-1zM0 6h1v1H0zM15 6h1v1h-1zM1 7h1v1H1zM14 7h1v1h-1zM2 8h1v1H2zM13 8h1v1h-1zM3 9h1v1H3zM12 9h1v1h-1zM4 10h1v1H4zM11 10h1v1h-1zM5 11h1v1H5zM10 11h1v1h-1zM6 12h1v1H6zM9 12h1v1H9zM7 13h1v1H7zM8 13h1v1H8z"/></svg>