<svg width="16" height="16" xmlns="http://www.w3.org/2000/svg" shape-rendering="crispEdges"><path d="M7 0h1v1H7zM8 0h1v1H8zM3 1h1v1H3zM4 1h1v1H4zM6 1h1v1H6zM7 1h1v1H7zM8 1h1v1H8zM9 1h1v1H9zM11 1h1v1h-1zM12 1h1v1h-1zM3 2h1v1H3zM4 2h1v1H4zM5 2h1v1H5zM10 2h1v1h-1zM11 2h1v1h-1zM12 2h1v1h-1zM1 3h1v1H1zM2 3h1v1H2zM3 3h1v1H3zM6 3h1v1H6zM7 3h1v1H7zM8 3h1v1H8zM9 3h1v1H9zM12 3h1v1h-1zM13 3h1v1h-1zM14 3h1v1h-1zM1 4h1v1H1zM2 4h1v1H2zM5 4h1v1H5zM6 4h1v1H6zM7 4h1v1H7zM8 4h1v1H8zM9 4h1v1H9zM10 4h1v1h-1zM13 4h1v1h-1zM14 4h1v1h-1zM2 5h1v1H2zM4 5h1v1H4zM5 5h1v1H5zM6 5h1v1H6zM7 5h1v1H7zM8 5h1v1H8zM9 5h1v1H9zM10 5h1v1h-1zM11 5h1v1h-1zM13 5h1v1h-1zM1 6h1v1H1zM3 6h1v1H3zM4 6h1v1H4zM5 6h1v1H5zM6 6h1v1H6zM7 6h1v1H7zM8 6h1v1H8zM9 6h1v1H9zM10 6h1v1h-1zM11 6h1v1h-1zM12 6h1v1h-1zM14 6h1v1h-1zM0 7h1v1H0zM1 7h1v1H1zM3 7h1v1H3zM4 7h1v1H4zM5 7h1v1H5zM6 7h1v1H6zM7 7h1v1H7zM8 7h1v1H8zM9 7h1v1H9zM10 7h1v1h-1zM11 7h1v1h-1zM12 7h1v1h-1zM14 7h1v1h-1zM15 7h1v1h-1zM0 8h1v1H0zM1 8h1v1H1zM3 8h1v1H3zM4 8h1v1H4zM5 8h1v1H5zM6 8h1v1H6zM7 8h1v1H7zM8 8h1v1H8zM9 8h1v1H9zM10 8h1v1h-1zM11 8h1v1h-1zM12 8h1v1h-1zM14 8h1v1h-1zM15 8h1v1h-1zM1 9h1v1H1zM3 9h1v1H3zM4 9h1v1H4zM5 9h1v1H5zM6 9h1v1H6zM7 9h1v1H7zM8 9h1v1H8zM9 9h1v1H9zM10 9h1v1h-1zM11 9h1v1h-1zM12 9h1v1h-1zM14 9h1v1h-1zM2 10h1v1H2zM4 10h1v1H4zM5 10h1v1H5zM6 10h1v1H6zM7 10h1v1H7zM8 10h1v1H8zM9 10h1v1H9zM10 10h1v1h-1zM11 10h1v1h-1zM13 10h1v1h-1zM1 11h1v1H1zM2 11h1v1H2zM5 11h1v1H5zM6 11h1v1H6zM7 11h1v1H7zM8 11h1v1H8zM9 11h1v1H9zM10 11h1v1h-1zM13 11h1v1h-1zM14 11h1v1h-1zM1 12h1v1H1zM2 12h1v1H2zM3 12h1v1H3zM6 12h1v1H6zM7 12h1v1H7zM8 12h1v1H8zM9 12h1v1H9zM12 12h1v1h-1zM13 12h1v1h-1zM14 12h1v1h-1zM3 13h1v1H3zM4 13h1v1H4zM5 13h1v1H5zM10 13h1v1h-1zM11 13h1v1h-1zM12 13h1v1h-1zM3 14h1v1H3zM4 14h1v1H4zM6 14h1v1H6zM7 14h1v1H7zM8 14h1v1H8zM9 14h1v1H9zM11 14h1v1h-1zM12 14h1v1h-1zM7 15h1v1H7zM8 15h1v1H8z"/></svg>