<svg width="16" height="16" xmlns="http://www.w3.org/2000/svg" shape-rendering="crispEdges"><path d="M2 2h1v1H2zM3 2h1v1H3zM4 2h1v1H4zM5 2h1v1H5zM6 2h1v1H6zM7 2h1v1H7zM2 3h1v1H2zM8 3h1v1H8zM2 4h1v1H2zM5 4h1v1H5zM6 4h1v1H6zM9 4h1v1H9zM2 5h1v1H2zM4 5h1v1H4zM7 5h1v1H7zM10 5h1v1h-1zM2 6h1v1H2zM4 6h1v1H4zM7 6h1v1H7zM11 6h1v1h-1zM2 7h1v1H2zM5 7h1v1H5zM6 7h1v1H6zM12 7h1v1h-1zM3 8h1v1H3zM13 8h1v1h-1zM4 9h1v1H4zM12 9h1v1h-1zM5 10h1v1H5zM11 10h1v1h-1zM6 11h1v1H6zM10 11h1v1h-1zM7 12h1v1H7zM9 12h1v1H9zM8 13h1v1H8z"/></svg>