<svg width="16" height="16" xmlns="http://www.w3.org/2000/svg" shape-rendering="crispEdges"><path d="M2 0h1v1H2zM1 1h1v1H1zM3 1h1v1H3zM0 2h1v1H0zM4 2h1v1H4zM0 3h1v1H0zM5 3h1v1H5zM0 4h1v1H0zM5 4h1v1H5zM0 5h1v1H0zM5 5h1v1H5zM1 6h1v1H1zM6 6h1v1H6zM2 7h1v1H2zM7 7h1v1H7zM3 8h1v1H3zM8 8h1v1H8zM4 9h1v1H4zM9 9h1v1H9zM5 10h1v1H5zM10 10h1v1h-1zM11 10h1v1h-1zM12 10h1v1h-1zM6 11h1v1H6zM13 11h1v1h-1zM7 12h1v1H7zM14 12h1v1h-1zM8 13h1v1H8zM15 13h1v1h-1zM9 14h1v1H9zM14 14h1v1h-1zM10 15h1v1h-1zM11 15h1v1h-1zM12 15h1v1h-1zM13 15h1v1h-1z"/></svg>