<svg width="16" height="16" xmlns="http://www.w3.org/2000/svg" shape-rendering="crispEdges"><path d="M3 3h1v1H3zM4 3h1v1H4zM5 3h1v1H5zM6 3h1v1H6zM7 3h1v1H7zM8 3h1v1H8zM9 3h1v1H9zM10 3h1v1h-1zM11 3h1v1h-1zM12 3h1v1h-1zM2 4h1v1H2zM7 4h1v1H7zM13 4h1v1h-1zM1 5h1v1H1zM8 5h1v1H8zM14 5h1v1h-1zM0 6h1v1H0zM9 6h1v1H9zM15 6h1v1h-1zM0 7h1v1H0zM9 7h1v1H9zM15 7h1v1h-1zM0 8h1v1H0zM9 8h1v1H9zM15 8h1v1h-1zM0 9h1v1H0zM9 9h1v1H9zM15 9h1v1h-1zM1 10h1v1H1zM8 10h1v1H8zM14 10h1v1h-1zM2 11h1v1H2zM7 11h1v1H7zM13 11h1v1h-1zM3 12h1v1H3zM4 12h1v1H4zM5 12h1v1H5zM6 12h1v1H6zM7 12h1v1H7zM8 12h1v1H8zM9 12h1v1H9zM10 12h1v1h-1zM11 12h1v1h-1zM12 12h1v1h-1z"/></svg>