<svg width="16" height="16" xmlns="http://www.w3.org/2000/svg" shape-rendering="crispEdges"><path d="M7 0h1v1H7zM8 0h1v1H8zM3 1h1v1H3zM4 1h1v1H4zM5 1h1v1H5zM6 1h1v1H6zM7 1h1v1H7zM8 1h1v1H8zM9 1h1v1H9zM10 1h1v1h-1zM11 1h1v1h-1zM12 1h1v1h-1zM2 2h1v1H2zM3 2h1v1H3zM4 2h1v1H4zM5 2h1v1H5zM6 2h1v1H6zM7 2h1v1H7zM8 2h1v1H8zM9 2h1v1H9zM10 2h1v1h-1zM11 2h1v1h-1zM12 2h1v1h-1zM13 2h1v1h-1zM2 3h1v1H2zM3 3h1v1H3zM4 3h1v1H4zM5 3h1v1H5zM6 3h1v1H6zM7 3h1v1H7zM8 3h1v1H8zM9 3h1v1H9zM10 3h1v1h-1zM11 3h1v1h-1zM12 3h1v1h-1zM13 3h1v1h-1zM3 4h1v1H3zM4 4h1v1H4zM5 4h1v1H5zM6 4h1v1H6zM7 4h1v1H7zM8 4h1v1H8zM9 4h1v1H9zM10 4h1v1h-1zM11 4h1v1h-1zM12 4h1v1h-1zM3 5h1v1H3zM4 5h1v1H4zM6 5h1v1H6zM9 5h1v1H9zM11 5h1v1h-1zM12 5h1v1h-1zM3 6h1v1H3zM4 6h1v1H4zM6 6h1v1H6zM9 6h1v1H9zM11 6h1v1h-1zM12 6h1v1h-1zM3 7h1v1H3zM4 7h1v1H4zM6 7h1v1H6zM9 7h1v1H9zM11 7h1v1h-1zM12 7h1v1h-1zM3 8h1v1H3zM4 8h1v1H4zM6 8h1v1H6zM9 8h1v1H9zM11 8h1v1h-1zM12 8h1v1h-1zM3 9h1v1H3zM4 9h1v1H4zM6 9h1v1H6zM9 9h1v1H9zM11 9h1v1h-1zM12 9h1v1h-1zM3 10h1v1H3zM4 10h1v1H4zM6 10h1v1H6zM9 10h1v1H9zM11 10h1v1h-1zM12 10h1v1h-1zM3 11h1v1H3zM4 11h1v1H4zM6 11h1v1H6zM9 11h1v1H9zM11 11h1v1h-1zM12 11h1v1h-1zM3 12h1v1H3zM4 12h1v1H4zM6 12h1v1H6zM9 12h1v1H9zM11 12h1v1h-1zM12 12h1v1h-1zM3 13h1v1H3zM4 13h1v1H4zM6 13h1v1H6zM9 13h1v1H9zM11 13h1v1h-1zM12 13h1v1h-1zM3 14h1v1H3zM4 14h1v1H4zM5 14h1v1H5zM6 14h1v1H6zM7 14h1v1H7zM8 14h1v1H8zM9 14h1v1H9zM10 14h1v1h-1zM11 14h1v1h-1zM12 14h1v1h-1zM4 15h1v1H4zM5 15h1v1H5zM6 15h1v1H6zM7 15h1v1H7zM8 15h1v1H8zM9 15h1v1H9zM10 15h1v1h-1zM11 15h1v1h-1z"/></svg>