<svg width="16" height="16" xmlns="http://www.w3.org/2000/svg" shape-rendering="crispEdges"><path d="M7 0h1v1H7zM8 0h1v1H8zM3 1h1v1H3zM4 1h1v1H4zM5 1h1v1H5zM6 1h1v1H6zM7 1h1v1H7zM8 1h1v1H8zM9 1h1v1H9zM10 1h1v1h-1zM11 1h1v1h-1zM12 1h1v1h-1zM2 2h1v1H2zM13 2h1v1h-1zM2 3h1v1H2zM3 3h1v1H3zM4 3h1v1H4zM5 3h1v1H5zM6 3h1v1H6zM7 3h1v1H7zM8 3h1v1H8zM9 3h1v1H9zM10 3h1v1h-1zM11 3h1v1h-1zM12 3h1v1h-1zM13 3h1v1h-1zM3 4h1v1H3zM12 4h1v1h-1zM3 5h1v1H3zM5 5h1v1H5zM7 5h1v1H7zM8 5h1v1H8zM10 5h1v1h-1zM12 5h1v1h-1zM3 6h1v1H3zM5 6h1v1H5zM7 6h1v1H7zM8 6h1v1H8zM10 6h1v1h-1zM12 6h1v1h-1zM3 7h1v1H3zM5 7h1v1H5zM7 7h1v1H7zM8 7h1v1H8zM10 7h1v1h-1zM12 7h1v1h-1zM3 8h1v1H3zM5 8h1v1H5zM7 8h1v1H7zM8 8h1v1H8zM10 8h1v1h-1zM12 8h1v1h-1zM3 9h1v1H3zM5 9h1v1H5zM7 9h1v1H7zM8 9h1v1H8zM10 9h1v1h-1zM12 9h1v1h-1zM3 10h1v1H3zM5 10h1v1H5zM7 10h1v1H7zM8 10h1v1H8zM10 10h1v1h-1zM12 10h1v1h-1zM3 11h1v1H3zM5 11h1v1H5zM7 11h1v1H7zM8 11h1v1H8zM10 11h1v1h-1zM12 11h1v1h-1zM3 12h1v1H3zM5 12h1v1H5zM7 12h1v1H7zM8 12h1v1H8zM10 12h1v1h-1zM12 12h1v1h-1zM3 13h1v1H3zM5 13h1v1H5zM7 13h1v1H7zM8 13h1v1H8zM10 13h1v1h-1zM12 13h1v1h-1zM3 14h1v1H3zM12 14h1v1h-1zM4 15h1v1H4zM5 15h1v1H5zM6 15h1v1H6zM7 15h1v1H7zM8 15h1v1H8zM9 15h1v1H9zM10 15h1v1h-1zM11 15h1v1h-1z"/></svg>