<svg width="16" height="16" xmlns="http://www.w3.org/2000/svg" shape-rendering="crispEdges"><path d="M5 2h1v1H5zM6 2h1v1H6zM7 2h1v1H7zM8 2h1v1H8zM9 2h1v1H9zM5 3h1v1H5zM10 3h1v1h-1zM5 4h1v1H5zM11 4h1v1h-1zM5 5h1v1H5zM11 5h1v1h-1zM5 6h1v1H5zM10 6h1v1h-1zM5 7h1v1H5zM9 7h1v1H9zM5 8h1v1H5zM6 8h1v1H6zM7 8h1v1H7zM8 8h1v1H8zM9 8h1v1H9zM5 9h1v1H5zM10 9h1v1h-1zM5 10h1v1H5zM11 10h1v1h-1zM5 11h1v1H5zM11 11h1v1h-1zM5 12h1v1H5zM10 12h1v1h-1zM5 13h1v1H5zM6 13h1v1H6zM7 13h1v1H7zM8 13h1v1H8zM9 13h1v1H9z"/></svg>