<svg width="16" height="16" xmlns="http://www.w3.org/2000/svg" shape-rendering="crispEdges"><path d="M2 3h1v1H2zM7 3h1v1H7zM10 3h1v1h-1zM11 3h1v1h-1zM12 3h1v1h-1zM2 4h1v1H2zM7 4h1v1H7zM9 4h1v1H9zM13 4h1v1h-1zM2 5h1v1H2zM7 5h1v1H7zM13 5h1v1h-1zM2 6h1v1H2zM7 6h1v1H7zM12 6h1v1h-1zM2 7h1v1H2zM3 7h1v1H3zM4 7h1v1H4zM5 7h1v1H5zM6 7h1v1H6zM7 7h1v1H7zM10 7h1v1h-1zM11 7h1v1h-1zM2 8h1v1H2zM7 8h1v1H7zM12 8h1v1h-1zM2 9h1v1H2zM7 9h1v1H7zM13 9h1v1h-1zM2 10h1v1H2zM7 10h1v1H7zM13 10h1v1h-1zM2 11h1v1H2zM7 11h1v1H7zM9 11h1v1H9zM13 11h1v1h-1zM2 12h1v1H2zM7 12h1v1H7zM10 12h1v1h-1zM11 12h1v1h-1zM12 12h1v1h-1z"/></svg>