<svg width="16" height="16" xmlns="http://www.w3.org/2000/svg" shape-rendering="crispEdges"><path d="M5 3h1v1H5zM4 4h1v1H4zM6 4h1v1H6zM4 5h1v1H4zM6 5h1v1H6zM4 6h1v1H4zM6 6h1v1H6zM3 7h1v1H3zM7 7h1v1H7zM3 8h1v1H3zM7 8h1v1H7zM11 8h1v1h-1zM12 8h1v1h-1zM3 9h1v1H3zM4 9h1v1H4zM5 9h1v1H5zM6 9h1v1H6zM7 9h1v1H7zM13 9h1v1h-1zM2 10h1v1H2zM8 10h1v1H8zM11 10h1v1h-1zM12 10h1v1h-1zM13 10h1v1h-1zM2 11h1v1H2zM8 11h1v1H8zM10 11h1v1h-1zM13 11h1v1h-1zM2 12h1v1H2zM8 12h1v1H8zM11 12h1v1h-1zM12 12h1v1h-1zM13 12h1v1h-1z"/></svg>