<svg width="16" height="16" xmlns="http://www.w3.org/2000/svg" shape-rendering="crispEdges"><path d="M10 0h1v1h-1zM11 0h1v1h-1zM9 1h1v1H9zM12 1h1v1h-1zM8 2h1v1H8zM13 2h1v1h-1zM8 3h1v1H8zM13 3h1v1h-1zM8 4h1v1H8zM13 4h1v1h-1zM8 5h1v1H8zM13 5h1v1h-1zM8 6h1v1H8zM13 6h1v1h-1zM3 7h1v1H3zM4 7h1v1H4zM5 7h1v1H5zM6 7h1v1H6zM7 7h1v1H7zM8 7h1v1H8zM9 7h1v1H9zM2 8h1v1H2zM10 8h1v1h-1zM2 9h1v1H2zM10 9h1v1h-1zM2 10h1v1H2zM10 10h1v1h-1zM2 11h1v1H2zM10 11h1v1h-1zM2 12h1v1H2zM10 12h1v1h-1zM2 13h1v1H2zM10 13h1v1h-1zM2 14h1v1H2zM10 14h1v1h-1zM2 15h1v1H2zM3 15h1v1H3zM4 15h1v1H4zM5 15h1v1H5zM6 15h1v1H6zM7 15h1v1H7zM8 15h1v1H8zM9 15h1v1H9zM10 15h1v1h-1z"/></svg>