<svg width="16" height="16" xmlns="http://www.w3.org/2000/svg" shape-rendering="crispEdges"><path d="M3 4h1v1H3zM5 4h1v1H5zM7 4h1v1H7zM9 4h1v1H9zM10 4h1v1h-1zM12 4h1v1h-1zM3 5h1v1H3zM5 5h1v1H5zM7 5h1v1H7zM9 5h1v1H9zM10 5h1v1h-1zM12 5h1v1h-1zM3 6h1v1H3zM5 6h1v1H5zM7 6h1v1H7zM9 6h1v1H9zM10 6h1v1h-1zM12 6h1v1h-1zM3 7h1v1H3zM5 7h1v1H5zM7 7h1v1H7zM9 7h1v1H9zM10 7h1v1h-1zM12 7h1v1h-1zM3 8h1v1H3zM5 8h1v1H5zM7 8h1v1H7zM9 8h1v1H9zM10 8h1v1h-1zM12 8h1v1h-1zM3 9h1v1H3zM5 9h1v1H5zM7 9h1v1H7zM9 9h1v1H9zM10 9h1v1h-1zM12 9h1v1h-1zM3 10h1v1H3zM5 10h1v1H5zM7 10h1v1H7zM9 10h1v1H9zM10 10h1v1h-1zM12 10h1v1h-1zM3 11h1v1H3zM5 11h1v1H5zM7 11h1v1H7zM9 11h1v1H9zM10 11h1v1h-1zM12 11h1v1h-1z"/></svg>