<svg width="16" height="16" xmlns="http://www.w3.org/2000/svg" shape-rendering="crispEdges"><path d="M10 2h1v1h-1zM11 2h1v1h-1zM9 3h1v1H9zM10 3h1v1h-1zM11 3h1v1h-1zM12 3h1v1h-1zM6 4h1v1H6zM7 4h1v1H7zM8 4h1v1H8zM9 4h1v1H9zM10 4h1v1h-1zM11 4h1v1h-1zM12 4h1v1h-1zM13 4h1v1h-1zM4 5h1v1H4zM5 5h1v1H5zM10 5h1v1h-1zM11 5h1v1h-1zM12 5h1v1h-1zM13 5h1v1h-1zM4 6h1v1H4zM11 6h1v1h-1zM12 6h1v1h-1zM4 7h1v1H4zM7 7h1v1H7zM8 7h1v1H8zM11 7h1v1h-1zM3 8h1v1H3zM7 8h1v1H7zM8 8h1v1H8zM11 8h1v1h-1zM3 9h1v1H3zM6 9h1v1H6zM11 9h1v1h-1zM3 10h1v1H3zM5 10h1v1H5zM10 10h1v1h-1zM2 11h1v1H2zM4 11h1v1H4zM8 11h1v1H8zM9 11h1v1H9zM10 11h1v1h-1zM2 12h1v1H2zM3 12h1v1H3zM5 12h1v1H5zM6 12h1v1H6zM7 12h1v1H7zM2 13h1v1H2zM3 13h1v1H3zM4 13h1v1H4z"/></svg>