<svg width="16" height="16" xmlns="http://www.w3.org/2000/svg" shape-rendering="crispEdges"><path d="M12 2h1v1h-1zM8 3h1v1H8zM13 3h1v1h-1zM7 4h1v1H7zM8 4h1v1H8zM13 4h1v1h-1zM6 5h1v1H6zM8 5h1v1H8zM11 5h1v1h-1zM14 5h1v1h-1zM2 6h1v1H2zM3 6h1v1H3zM4 6h1v1H4zM5 6h1v1H5zM8 6h1v1H8zM12 6h1v1h-1zM14 6h1v1h-1zM2 7h1v1H2zM8 7h1v1H8zM10 7h1v1h-1zM12 7h1v1h-1zM14 7h1v1h-1zM2 8h1v1H2zM8 8h1v1H8zM10 8h1v1h-1zM12 8h1v1h-1zM14 8h1v1h-1zM2 9h1v1H2zM3 9h1v1H3zM4 9h1v1H4zM5 9h1v1H5zM8 9h1v1H8zM12 9h1v1h-1zM14 9h1v1h-1zM6 10h1v1H6zM8 10h1v1H8zM11 10h1v1h-1zM14 10h1v1h-1zM7 11h1v1H7zM8 11h1v1H8zM13 11h1v1h-1zM8 12h1v1H8zM13 12h1v1h-1zM12 13h1v1h-1z"/></svg>