<svg width="16" height="16" xmlns="http://www.w3.org/2000/svg" shape-rendering="crispEdges"><path d="M5 0h1v1H5zM6 0h1v1H6zM7 0h1v1H7zM8 0h1v1H8zM9 0h1v1H9zM10 0h1v1h-1zM5 1h1v1H5zM6 1h1v1H6zM7 1h1v1H7zM8 1h1v1H8zM9 1h1v1H9zM10 1h1v1h-1zM5 2h1v1H5zM6 2h1v1H6zM7 2h1v1H7zM8 2h1v1H8zM9 2h1v1H9zM10 2h1v1h-1zM5 3h1v1H5zM6 3h1v1H6zM7 3h1v1H7zM8 3h1v1H8zM9 3h1v1H9zM10 3h1v1h-1zM4 4h1v1H4zM11 4h1v1h-1zM3 5h1v1H3zM8 5h1v1H8zM12 5h1v1h-1zM3 6h1v1H3zM8 6h1v1H8zM12 6h1v1h-1zM3 7h1v1H3zM8 7h1v1H8zM12 7h1v1h-1zM13 7h1v1h-1zM3 8h1v1H3zM7 8h1v1H7zM12 8h1v1h-1zM13 8h1v1h-1zM3 9h1v1H3zM6 9h1v1H6zM12 9h1v1h-1zM3 10h1v1H3zM12 10h1v1h-1zM4 11h1v1H4zM11 11h1v1h-1zM5 12h1v1H5zM6 12h1v1H6zM7 12h1v1H7zM8 12h1v1H8zM9 12h1v1H9zM10 12h1v1h-1zM5 13h1v1H5zM6 13h1v1H6zM7 13h1v1H7zM8 13h1v1H8zM9 13h1v1H9zM10 13h1v1h-1zM5 14h1v1H5zM6 14h1v1H6zM7 14h1v1H7zM8 14h1v1H8zM9 14h1v1H9zM10 14h1v1h-1zM5 15h1v1H5zM6 15h1v1H6zM7 15h1v1H7zM8 15h1v1H8zM9 15h1v1H9zM10 15h1v1h-1z"/></svg>