<svg width="16" height="16" xmlns="http://www.w3.org/2000/svg" shape-rendering="crispEdges"><path d="M3 3h1v1H3zM4 3h1v1H4zM11 3h1v1h-1zM12 3h1v1h-1zM3 4h1v1H3zM4 4h1v1H4zM11 4h1v1h-1zM12 4h1v1h-1zM5 5h1v1H5zM6 5h1v1H6zM9 5h1v1H9zM10 5h1v1h-1zM5 6h1v1H5zM6 6h1v1H6zM9 6h1v1H9zM10 6h1v1h-1zM7 7h1v1H7zM8 7h1v1H8zM7 8h1v1H7zM8 8h1v1H8zM5 9h1v1H5zM6 9h1v1H6zM9 9h1v1H9zM10 9h1v1h-1zM5 10h1v1H5zM6 10h1v1H6zM9 10h1v1H9zM10 10h1v1h-1zM3 11h1v1H3zM4 11h1v1H4zM11 11h1v1h-1zM12 11h1v1h-1zM3 12h1v1H3zM4 12h1v1H4zM11 12h1v1h-1zM12 12h1v1h-1z"/></svg>