<svg width="16" height="16" xmlns="http://www.w3.org/2000/svg" shape-rendering="crispEdges"><path d="M3 0h1v1H3zM4 0h1v1H4zM5 0h1v1H5zM6 0h1v1H6zM7 0h1v1H7zM2 1h1v1H2zM8 1h1v1H8zM1 2h1v1H1zM9 2h1v1H9zM0 3h1v1H0zM5 3h1v1H5zM10 3h1v1h-1zM0 4h1v1H0zM5 4h1v1H5zM10 4h1v1h-1zM0 5h1v1H0zM3 5h1v1H3zM4 5h1v1H4zM5 5h1v1H5zM6 5h1v1H6zM7 5h1v1H7zM10 5h1v1h-1zM0 6h1v1H0zM5 6h1v1H5zM10 6h1v1h-1zM0 7h1v1H0zM5 7h1v1H5zM10 7h1v1h-1zM1 8h1v1H1zM9 8h1v1H9zM2 9h1v1H2zM8 9h1v1H8zM9 9h1v1H9zM10 9h1v1h-1zM3 10h1v1H3zM4 10h1v1H4zM5 10h1v1H5zM6 10h1v1H6zM7 10h1v1H7zM9 10h1v1H9zM10 10h1v1h-1zM11 10h1v1h-1zM10 11h1v1h-1zM11 11h1v1h-1zM12 11h1v1h-1zM11 12h1v1h-1zM12 12h1v1h-1zM13 12h1v1h-1zM12 13h1v1h-1zM13 13h1v1h-1zM14 13h1v1h-1zM13 14h1v1h-1zM14 14h1v1h-1zM15 14h1v1h-1zM14 15h1v1h-1zM15 15h1v1h-1z"/></svg>